<svg width="153mm" height="131.28mm" viewBox="0 0 153 131.28" xmlns="http://www.w3.org/2000/svg"><g id="svgGroup" stroke-linecap="round" fill-rule="evenodd" font-size="9pt" stroke="#000" stroke-width="0.25mm" fill="none" style="stroke:#000;stroke-width:0.25mm;fill:none"><path d="M 141.868 97.861 L 126.946 107.927 L 116.88 93.004 L 131.803 82.939 L 141.868 97.861 Z M 118.565 104.416 L 103.642 114.482 L 93.577 99.559 L 108.5 89.493 L 118.565 104.416 Z M 22.32 49.426 L 40.309 50.054 L 39.68 68.043 L 21.691 67.415 L 22.32 49.426 Z M 23.716 9.45 L 41.705 10.079 L 41.076 28.068 L 23.087 27.439 L 23.716 9.45 Z M 23.018 29.438 L 41.007 30.066 L 40.378 48.055 L 22.389 47.427 L 23.018 29.438 Z M 0 59.735 L 18 59.735 L 18 77.735 L 0 77.735 L 0 59.735 Z M 0 39.735 L 18 39.735 L 18 57.735 L 0 57.735 L 0 39.735 Z M 0 19.735 L 18 19.735 L 18 37.735 L 0 37.735 L 0 19.735 Z M 44.985 39.903 L 62.941 41.158 L 61.686 59.114 L 43.73 57.859 L 44.985 39.903 Z M 47.776 0 L 65.732 1.256 L 64.476 19.212 L 46.52 17.956 L 47.776 0 Z M 46.38 19.951 L 64.337 21.207 L 63.081 39.163 L 45.125 37.907 L 46.38 19.951 Z M 70.756 11.346 L 88.657 13.228 L 86.776 31.129 L 68.874 29.248 L 70.756 11.346 Z M 86.465 53.218 L 104.366 55.099 L 102.485 73.001 L 84.583 71.119 L 86.465 53.218 Z M 90.646 13.437 L 108.547 15.318 L 106.666 33.22 L 88.765 31.338 L 90.646 13.437 Z M 66.574 51.127 L 84.476 53.009 L 82.594 70.91 L 64.693 69.029 L 66.574 51.127 Z M 68.665 31.237 L 86.566 33.118 L 84.685 51.02 L 66.784 49.138 L 68.665 31.237 Z M 88.556 33.327 L 106.457 35.209 L 104.575 53.11 L 86.674 51.229 L 88.556 33.327 Z M 129.697 123.959 L 113.253 131.28 L 105.932 114.836 L 122.375 107.515 L 129.697 123.959 Z M 153 117.404 L 136.556 124.725 L 129.235 108.281 L 145.679 100.96 L 153 117.404 Z M 127.512 80.549 L 114.564 93.053 L 102.06 80.105 L 115.009 67.601 L 127.512 80.549 Z M 104.209 87.103 L 91.261 99.607 L 78.757 86.659 L 91.705 74.155 L 104.209 87.103 Z" vector-effect="non-scaling-stroke"/></g></svg>