<svg width="125.612mm" height="105.982mm" viewBox="0 0 125.612 105.982" xmlns="http://www.w3.org/2000/svg"><g id="svgGroup" stroke-linecap="round" fill-rule="evenodd" font-size="9pt" stroke="#000" stroke-width="0.25mm" fill="none" style="stroke:#000;stroke-width:0.25mm;fill:none"><path d="M 112.189 92.606 L 100.145 105.982 L 87.511 94.607 L 99.556 81.23 L 112.189 92.606 Z M 125.612 76.644 L 113.803 90.229 L 100.973 79.076 L 112.782 65.491 L 125.612 76.644 Z M 18.802 40.565 L 36.791 41.194 L 36.198 58.183 L 18.209 57.555 L 18.802 40.565 Z M 19.395 23.576 L 37.384 24.204 L 36.791 41.194 L 18.802 40.565 L 19.395 23.576 Z M 19.989 6.586 L 37.978 7.214 L 37.384 24.204 L 19.395 23.576 L 19.989 6.586 Z M 55.804 35.173 L 56.99 18.214 L 39.034 16.959 L 37.848 33.917 L 55.804 35.173 Z M 39.034 16.959 L 56.99 18.214 L 58.176 1.256 L 40.22 0 L 39.034 16.959 Z M 37.848 33.917 L 55.804 35.173 L 54.618 52.131 L 36.662 50.876 L 37.848 33.917 Z M 0 47.874 L 18 47.874 L 18 64.874 L 0 64.874 L 0 47.874 Z M 18 47.874 L 18 30.874 L 0 30.874 L 0 47.874 L 18 47.874 Z M 0 30.874 L 18 30.874 L 18 13.874 L 0 13.874 L 0 30.874 Z M 80.092 70.354 L 71.641 86.247 L 56.631 78.266 L 65.081 62.373 L 80.092 70.354 Z M 96.821 80.498 L 86.496 95.243 L 72.571 85.492 L 82.895 70.747 L 96.821 80.498 Z M 56.137 41.904 L 74.039 43.785 L 72.262 60.692 L 54.36 58.81 L 56.137 41.904 Z M 92.438 45.719 L 94.214 28.812 L 76.313 26.93 L 74.536 43.837 L 92.438 45.719 Z M 57.914 24.997 L 75.816 26.878 L 74.039 43.785 L 56.137 41.904 L 57.914 24.997 Z M 75.816 26.878 L 77.593 9.971 L 59.691 8.09 L 57.914 24.997 L 75.816 26.878 Z M 74.536 43.837 L 92.438 45.719 L 90.661 62.626 L 72.759 60.744 L 74.536 43.837 Z M 76.313 26.93 L 94.214 28.812 L 95.991 11.905 L 78.09 10.024 L 76.313 26.93 Z M 109.356 64.995 L 100.085 80.424 L 85.513 71.669 L 94.784 56.24 L 109.356 64.995 Z" vector-effect="non-scaling-stroke"/></g></svg>