0
SECTION
2
HEADER
9
$INSUNITS
70
4
0
ENDSEC
0
SECTION
2
TABLES
0
TABLE
2
LTYPE
0
LTYPE
72
65
70
64
2
CONTINUOUS
3
______
73
0
40
0
0
ENDTAB
0
TABLE
2
LAYER
0
ENDTAB
0
ENDSEC
0
SECTION
2
ENTITIES
0
LINE
8
0
10
-9
20
16
11
9
21
16
0
LINE
8
0
10
9
20
16
11
9
21
-2
0
LINE
8
0
10
9
20
-2
11
-9
21
-2
0
LINE
8
0
10
-9
20
-2
11
-9
21
16
0
LINE
8
0
10
-9
20
33
11
9
21
33
0
LINE
8
0
10
9
20
33
11
9
21
15
0
LINE
8
0
10
9
20
15
11
-9
21
15
0
LINE
8
0
10
-9
20
15
11
-9
21
33
0
LINE
8
0
10
-9
20
50
11
9
21
50
0
LINE
8
0
10
9
20
50
11
9
21
32
0
LINE
8
0
10
9
20
32
11
-9
21
32
0
LINE
8
0
10
-9
20
32
11
-9
21
50
0
LINE
8
0
10
9.819578
20
23.3086129
11
27.8086129
21
22.680422
0
LINE
8
0
10
27.8086129
20
22.680422
11
27.180422
21
4.6913871
0
LINE
8
0
10
27.180422
20
4.6913871
11
9.1913871
21
5.319578
0
LINE
8
0
10
9.1913871
20
5.319578
11
9.819578
21
23.3086129
0
LINE
8
0
10
10.4128694
20
40.298257
11
28.4019043
21
39.6700661
0
LINE
8
0
10
28.4019043
20
39.6700661
11
27.7737134
21
21.6810312
0
LINE
8
0
10
27.7737134
20
21.6810312
11
9.7846785
21
22.3092221
0
LINE
8
0
10
9.7846785
20
22.3092221
11
10.4128694
21
40.298257
0
LINE
8
0
10
11.0061608
20
57.2879011
11
28.9951957
21
56.6597102
0
LINE
8
0
10
28.9951957
20
56.6597102
11
28.3670048
21
38.6706753
0
LINE
8
0
10
28.3670048
20
38.6706753
11
10.3779699
21
39.2988662
0
LINE
8
0
10
10.3779699
20
39.2988662
11
11.0061608
21
57.2879011
0
LINE
8
0
10
28.8827586
20
29.9559798
11
46.8389115
21
28.7003633
0
LINE
8
0
10
46.8389115
20
28.7003633
11
45.583295
21
10.7442104
0
LINE
8
0
10
45.583295
20
10.7442104
11
27.6271421
21
11.9998269
0
LINE
8
0
10
27.6271421
20
11.9998269
11
28.8827586
21
29.9559798
0
LINE
8
0
10
30.0686187
20
46.9145687
11
48.0247716
21
45.6589522
0
LINE
8
0
10
48.0247716
20
45.6589522
11
46.7691551
21
27.7027993
0
LINE
8
0
10
46.7691551
20
27.7027993
11
28.8130022
21
28.9584158
0
LINE
8
0
10
28.8130022
20
28.9584158
11
30.0686187
21
46.9145687
0
LINE
8
0
10
31.2544788
20
63.8731576
11
49.2106317
21
62.6175411
0
LINE
8
0
10
49.2106317
20
62.6175411
11
47.9550152
21
44.6613882
0
LINE
8
0
10
47.9550152
20
44.6613882
11
29.9988623
21
45.9170047
0
LINE
8
0
10
29.9988623
20
45.9170047
11
31.2544788
21
63.8731576
0
LINE
8
0
10
47.1897255
20
21.9681052
11
65.0911196
21
20.0865929
0
LINE
8
0
10
65.0911196
20
20.0865929
11
63.2096073
21
2.1851988
0
LINE
8
0
10
63.2096073
20
2.1851988
11
45.3082132
21
4.0667111
0
LINE
8
0
10
45.3082132
20
4.0667111
11
47.1897255
21
21.9681052
0
LINE
8
0
10
48.9667094
20
38.8749774
11
66.8681035
21
36.9934651
0
LINE
8
0
10
66.8681035
20
36.9934651
11
64.9865912
21
19.092071
0
LINE
8
0
10
64.9865912
20
19.092071
11
47.0851971
21
20.9735833
0
LINE
8
0
10
47.0851971
20
20.9735833
11
48.9667094
21
38.8749774
0
LINE
8
0
10
50.7436933
20
55.7818496
11
68.6450874
21
53.9003373
0
LINE
8
0
10
68.6450874
20
53.9003373
11
66.7635751
21
35.9989432
0
LINE
8
0
10
66.7635751
20
35.9989432
11
48.862181
21
37.8804555
0
LINE
8
0
10
48.862181
20
37.8804555
11
50.7436933
21
55.7818496
0
LINE
8
0
10
65.5883805
20
20.0343286
11
83.4897746
21
18.1528163
0
LINE
8
0
10
83.4897746
20
18.1528163
11
81.6082623
21
0.2514222
0
LINE
8
0
10
81.6082623
20
0.2514222
11
63.7068682
21
2.1329345
0
LINE
8
0
10
63.7068682
20
2.1329345
11
65.5883805
21
20.0343286
0
LINE
8
0
10
67.3653644
20
36.9412008
11
85.2667585
21
35.0596885
0
LINE
8
0
10
85.2667585
20
35.0596885
11
83.3852462
21
17.1582944
0
LINE
8
0
10
83.3852462
20
17.1582944
11
65.4838521
21
19.0398067
0
LINE
8
0
10
65.4838521
20
19.0398067
11
67.3653644
21
36.9412008
0
LINE
8
0
10
69.1423483
20
53.848073
11
87.0437424
21
51.9665607
0
LINE
8
0
10
87.0437424
20
51.9665607
11
85.1622301
21
34.0651666
0
LINE
8
0
10
85.1622301
20
34.0651666
11
67.260836
21
35.9466789
0
LINE
8
0
10
67.260836
20
35.9466789
11
69.1423483
21
53.848073
0
LINE
8
0
10
100.7845149
20
-1.8783736
11
91.5138295
21
-17.307385
0
LINE
8
0
10
91.5138295
20
-17.307385
11
76.0848181
21
-8.0366996
0
LINE
8
0
10
76.0848181
20
-8.0366996
11
85.3555035
21
7.3923118
0
LINE
8
0
10
85.3555035
20
7.3923118
11
100.7845149
21
-1.8783736
0
LINE
8
0
10
116.9891791
20
-13.597886
11
105.1801166
21
-27.1826585
0
LINE
8
0
10
105.1801166
20
-27.1826585
11
91.5953441
21
-15.373596
0
LINE
8
0
10
91.5953441
20
-15.373596
11
103.4044066
21
-1.7888235
0
LINE
8
0
10
103.4044066
20
-1.7888235
11
116.9891791
21
-13.597886
0
LINE
8
0
10
71.533041
20
-7.2143404
11
63.0825529
21
-23.1073971
0
LINE
8
0
10
63.0825529
20
-23.1073971
11
47.1894962
21
-14.656909
0
LINE
8
0
10
47.1894962
20
-14.656909
11
55.6399843
21
1.2361477
0
LINE
8
0
10
55.6399843
20
1.2361477
11
71.533041
21
-7.2143404
0
LINE
8
0
10
88.2303554
20
-17.4106681
11
77.9059796
21
-32.1554049
0
LINE
8
0
10
77.9059796
20
-32.1554049
11
63.1612428
21
-21.8310291
0
LINE
8
0
10
63.1612428
20
-21.8310291
11
73.4856186
21
-7.0862923
0
LINE
8
0
10
73.4856186
20
-7.0862923
11
88.2303554
21
-17.4106681
0
LINE
8
0
10
103.5605908
20
-29.5658847
11
91.5162399
21
-42.9424916
0
LINE
8
0
10
91.5162399
20
-42.9424916
11
78.139633
21
-30.8981407
0
LINE
8
0
10
78.139633
20
-30.8981407
11
90.1839839
21
-17.5215338
0
LINE
8
0
10
90.1839839
20
-17.5215338
11
103.5605908
21
-29.5658847
0
ENDSEC
0
EOF