0
SECTION
2
HEADER
9
$INSUNITS
70
4
0
ENDSEC
0
SECTION
2
TABLES
0
TABLE
2
LTYPE
0
LTYPE
72
65
70
64
2
CONTINUOUS
3
______
73
0
40
0
0
ENDTAB
0
TABLE
2
LAYER
0
ENDTAB
0
ENDSEC
0
SECTION
2
ENTITIES
0
LINE
8
0
10
-9
20
19
11
9
21
19
0
LINE
8
0
10
9
20
19
11
9
21
1
0
LINE
8
0
10
9
20
1
11
-9
21
1
0
LINE
8
0
10
-9
20
1
11
-9
21
19
0
LINE
8
0
10
-9
20
39
11
9
21
39
0
LINE
8
0
10
9
20
39
11
9
21
21
0
LINE
8
0
10
9
20
21
11
-9
21
21
0
LINE
8
0
10
-9
20
21
11
-9
21
39
0
LINE
8
0
10
-9
20
59
11
9
21
59
0
LINE
8
0
10
9
20
59
11
9
21
41
0
LINE
8
0
10
9
20
41
11
-9
21
41
0
LINE
8
0
10
-9
20
41
11
-9
21
59
0
LINE
8
0
10
13.319578
20
29.3086129
11
31.3086129
21
28.680422
0
LINE
8
0
10
31.3086129
20
28.680422
11
30.680422
21
10.6913871
0
LINE
8
0
10
30.680422
20
10.6913871
11
12.6913871
21
11.319578
0
LINE
8
0
10
12.6913871
20
11.319578
11
13.319578
21
29.3086129
0
LINE
8
0
10
14.0175679
20
49.2964294
11
32.0066028
21
48.6682385
0
LINE
8
0
10
32.0066028
20
48.6682385
11
31.3784119
21
30.6792036
0
LINE
8
0
10
31.3784119
20
30.6792036
11
13.389377
21
31.3073945
0
LINE
8
0
10
13.389377
20
31.3073945
11
14.0175679
21
49.2964294
0
LINE
8
0
10
14.7155578
20
69.2842459
11
32.7045927
21
68.656055
0
LINE
8
0
10
32.7045927
20
68.656055
11
32.0764018
21
50.6670201
0
LINE
8
0
10
32.0764018
20
50.6670201
11
14.0873669
21
51.295211
0
LINE
8
0
10
14.0873669
20
51.295211
11
14.7155578
21
69.2842459
0
LINE
8
0
10
35.985325
20
38.832004
11
53.9414779
21
37.5763875
0
LINE
8
0
10
53.9414779
20
37.5763875
11
52.6858614
21
19.6202346
0
LINE
8
0
10
52.6858614
20
19.6202346
11
34.7297085
21
20.8758511
0
LINE
8
0
10
34.7297085
20
20.8758511
11
35.985325
21
38.832004
0
LINE
8
0
10
37.3804545
20
58.783285
11
55.3366074
21
57.5276685
0
LINE
8
0
10
55.3366074
20
57.5276685
11
54.0809909
21
39.5715156
0
LINE
8
0
10
54.0809909
20
39.5715156
11
36.124838
21
40.8271321
0
LINE
8
0
10
36.124838
20
40.8271321
11
37.3804545
21
58.783285
0
LINE
8
0
10
38.775584
20
78.734566
11
56.7317369
21
77.4789495
0
LINE
8
0
10
56.7317369
20
77.4789495
11
55.4761204
21
59.5227966
0
LINE
8
0
10
55.4761204
20
59.5227966
11
37.5199675
21
60.7784131
0
LINE
8
0
10
37.5199675
20
60.7784131
11
38.775584
21
78.734566
0
LINE
8
0
10
57.5744966
20
27.6072896
11
75.4758907
21
25.7257773
0
LINE
8
0
10
75.4758907
20
25.7257773
11
73.5943784
21
7.8243832
0
LINE
8
0
10
73.5943784
20
7.8243832
11
55.6929843
21
9.7058955
0
LINE
8
0
10
55.6929843
20
9.7058955
11
57.5744966
21
27.6072896
0
LINE
8
0
10
59.6650659
20
47.4977275
11
77.56646
21
45.6162152
0
LINE
8
0
10
77.56646
20
45.6162152
11
75.6849477
21
27.7148211
0
LINE
8
0
10
75.6849477
20
27.7148211
11
57.7835536
21
29.5963334
0
LINE
8
0
10
57.7835536
20
29.5963334
11
59.6650659
21
47.4977275
0
LINE
8
0
10
61.7556352
20
67.3881654
11
79.6570293
21
65.5066531
0
LINE
8
0
10
79.6570293
20
65.5066531
11
77.775517
21
47.605259
0
LINE
8
0
10
77.775517
20
47.605259
11
59.8741229
21
49.4867713
0
LINE
8
0
10
59.8741229
20
49.4867713
11
61.7556352
21
67.3881654
0
LINE
8
0
10
77.4649345
20
25.5167203
11
95.3663286
21
23.635208
0
LINE
8
0
10
95.3663286
20
23.635208
11
93.4848163
21
5.7338139
0
LINE
8
0
10
93.4848163
20
5.7338139
11
75.5834222
21
7.6153262
0
LINE
8
0
10
75.5834222
20
7.6153262
11
77.4649345
21
25.5167203
0
LINE
8
0
10
79.5555038
20
45.4071582
11
97.4568979
21
43.5256459
0
LINE
8
0
10
97.4568979
20
43.5256459
11
95.5753856
21
25.6242518
0
LINE
8
0
10
95.5753856
20
25.6242518
11
77.6739915
21
27.5057641
0
LINE
8
0
10
77.6739915
20
27.5057641
11
79.5555038
21
45.4071582
0
LINE
8
0
10
81.6460731
20
65.2975961
11
99.5474672
21
63.4160838
0
LINE
8
0
10
99.5474672
20
63.4160838
11
97.6659549
21
45.5146897
0
LINE
8
0
10
97.6659549
20
45.5146897
11
79.7645608
21
47.396202
0
LINE
8
0
10
79.7645608
20
47.396202
11
81.6460731
21
65.2975961
0
LINE
8
0
10
118.5124136
20
-1.8143204
11
105.5642972
21
-14.318171
0
LINE
8
0
10
105.5642972
20
-14.318171
11
93.0604466
21
-1.3700546
0
LINE
8
0
10
93.0604466
20
-1.3700546
11
106.008563
21
11.133796
0
LINE
8
0
10
106.008563
20
11.133796
11
118.5124136
21
-1.8143204
0
LINE
8
0
10
132.8683302
20
-19.1269253
11
117.9456539
21
-29.1923976
0
LINE
8
0
10
117.9456539
20
-29.1923976
11
107.8801816
21
-14.2697213
0
LINE
8
0
10
107.8801816
20
-14.2697213
11
122.8028579
21
-4.204249
0
LINE
8
0
10
122.8028579
20
-4.204249
11
132.8683302
21
-19.1269253
0
LINE
8
0
10
143.9998458
20
-38.6693916
11
127.5560276
21
-45.9906512
0
LINE
8
0
10
127.5560276
20
-45.9906512
11
120.234768
21
-29.546833
0
LINE
8
0
10
120.234768
20
-29.546833
11
136.6785862
21
-22.2255734
0
LINE
8
0
10
136.6785862
20
-22.2255734
11
143.9998458
21
-38.6693916
0
LINE
8
0
10
95.2092389
20
-8.3688646
11
82.2611225
21
-20.8727152
0
LINE
8
0
10
82.2611225
20
-20.8727152
11
69.7572719
21
-7.9245988
0
LINE
8
0
10
69.7572719
20
-7.9245988
11
82.7053883
21
4.5792518
0
LINE
8
0
10
82.7053883
20
4.5792518
11
95.2092389
21
-8.3688646
0
LINE
8
0
10
109.5651555
20
-25.6814695
11
94.6424792
21
-35.7469418
0
LINE
8
0
10
94.6424792
20
-35.7469418
11
84.5770069
21
-20.8242655
0
LINE
8
0
10
84.5770069
20
-20.8242655
11
99.4996832
21
-10.7587932
0
LINE
8
0
10
99.4996832
20
-10.7587932
11
109.5651555
21
-25.6814695
0
LINE
8
0
10
120.6966711
20
-45.2239358
11
104.2528529
21
-52.5451954
0
LINE
8
0
10
104.2528529
20
-52.5451954
11
96.9315933
21
-36.1013772
0
LINE
8
0
10
96.9315933
20
-36.1013772
11
113.3754115
21
-28.7801176
0
LINE
8
0
10
113.3754115
20
-28.7801176
11
120.6966711
21
-45.2239358
0
ENDSEC
0
EOF