0
SECTION
2
HEADER
9
$INSUNITS
70
4
0
ENDSEC
0
SECTION
2
TABLES
0
TABLE
2
LTYPE
0
LTYPE
72
65
70
64
2
CONTINUOUS
3
______
73
0
40
0
0
ENDTAB
0
TABLE
2
LAYER
0
ENDTAB
0
ENDSEC
0
SECTION
2
ENTITIES
0
LINE
8
0
10
-9
20
19
11
9
21
19
0
LINE
8
0
10
9
20
19
11
9
21
1
0
LINE
8
0
10
9
20
1
11
-9
21
1
0
LINE
8
0
10
-9
20
1
11
-9
21
19
0
LINE
8
0
10
-9
20
37
11
9
21
37
0
LINE
8
0
10
9
20
37
11
9
21
19
0
LINE
8
0
10
9
20
19
11
-9
21
19
0
LINE
8
0
10
-9
20
19
11
-9
21
37
0
LINE
8
0
10
-9
20
55
11
9
21
55
0
LINE
8
0
10
9
20
55
11
9
21
37
0
LINE
8
0
10
9
20
37
11
-9
21
37
0
LINE
8
0
10
-9
20
37
11
-9
21
55
0
LINE
8
0
10
10.319578
20
29.3086129
11
28.3086129
21
28.680422
0
LINE
8
0
10
28.3086129
20
28.680422
11
27.680422
21
10.6913871
0
LINE
8
0
10
27.680422
20
10.6913871
11
9.6913871
21
11.319578
0
LINE
8
0
10
9.6913871
20
11.319578
11
10.319578
21
29.3086129
0
LINE
8
0
10
10.9477689
20
47.2976478
11
28.9368038
21
46.6694569
0
LINE
8
0
10
28.9368038
20
46.6694569
11
28.3086129
21
28.680422
0
LINE
8
0
10
28.3086129
20
28.680422
11
10.319578
21
29.3086129
0
LINE
8
0
10
10.319578
20
29.3086129
11
10.9477689
21
47.2976478
0
LINE
8
0
10
11.5759598
20
65.2866827
11
29.5649947
21
64.6584918
0
LINE
8
0
10
29.5649947
20
64.6584918
11
28.9368038
21
46.6694569
0
LINE
8
0
10
28.9368038
20
46.6694569
11
10.9477689
21
47.2976478
0
LINE
8
0
10
10.9477689
20
47.2976478
11
11.5759598
21
65.2866827
0
LINE
8
0
10
29.9871525
20
38.9367025
11
47.9433054
21
37.681086
0
LINE
8
0
10
47.9433054
20
37.681086
11
46.6876889
21
19.7249331
0
LINE
8
0
10
46.6876889
20
19.7249331
11
28.731536
21
20.9805496
0
LINE
8
0
10
28.731536
20
20.9805496
11
29.9871525
21
38.9367025
0
LINE
8
0
10
31.242769
20
56.8928554
11
49.1989219
21
55.6372389
0
LINE
8
0
10
49.1989219
20
55.6372389
11
47.9433054
21
37.681086
0
LINE
8
0
10
47.9433054
20
37.681086
11
29.9871525
21
38.9367025
0
LINE
8
0
10
29.9871525
20
38.9367025
11
31.242769
21
56.8928554
0
LINE
8
0
10
32.4983855
20
74.8490083
11
50.4545384
21
73.5933918
0
LINE
8
0
10
50.4545384
20
73.5933918
11
49.1989219
21
55.6372389
0
LINE
8
0
10
49.1989219
20
55.6372389
11
31.242769
21
56.8928554
0
LINE
8
0
10
31.242769
20
56.8928554
11
32.4983855
21
74.8490083
0
LINE
8
0
10
48.583632
20
27.9212575
11
66.4850261
21
26.0397452
0
LINE
8
0
10
66.4850261
20
26.0397452
11
64.6035138
21
8.1383511
0
LINE
8
0
10
64.6035138
20
8.1383511
11
46.7021197
21
10.0198634
0
LINE
8
0
10
46.7021197
20
10.0198634
11
48.583632
21
27.9212575
0
LINE
8
0
10
50.4651443
20
45.8226516
11
68.3665384
21
43.9411393
0
LINE
8
0
10
68.3665384
20
43.9411393
11
66.4850261
21
26.0397452
0
LINE
8
0
10
66.4850261
20
26.0397452
11
48.583632
21
27.9212575
0
LINE
8
0
10
48.583632
20
27.9212575
11
50.4651443
21
45.8226516
0
LINE
8
0
10
52.3466566
20
63.7240457
11
70.2480507
21
61.8425334
0
LINE
8
0
10
70.2480507
20
61.8425334
11
68.3665384
21
43.9411393
0
LINE
8
0
10
68.3665384
20
43.9411393
11
50.4651443
21
45.8226516
0
LINE
8
0
10
50.4651443
20
45.8226516
11
52.3466566
21
63.7240457
0
LINE
8
0
10
67.479548
20
25.9352167
11
85.3809421
21
24.0537044
0
LINE
8
0
10
85.3809421
20
24.0537044
11
83.4994298
21
6.1523103
0
LINE
8
0
10
83.4994298
20
6.1523103
11
65.5980357
21
8.0338226
0
LINE
8
0
10
65.5980357
20
8.0338226
11
67.479548
21
25.9352167
0
LINE
8
0
10
69.3610603
20
43.8366108
11
87.2624544
21
41.9550985
0
LINE
8
0
10
87.2624544
20
41.9550985
11
85.3809421
21
24.0537044
0
LINE
8
0
10
85.3809421
20
24.0537044
11
67.479548
21
25.9352167
0
LINE
8
0
10
67.479548
20
25.9352167
11
69.3610603
21
43.8366108
0
LINE
8
0
10
71.2425726
20
61.7380049
11
89.1439667
21
59.8564926
0
LINE
8
0
10
89.1439667
20
59.8564926
11
87.2624544
21
41.9550985
0
LINE
8
0
10
87.2624544
20
41.9550985
11
69.3610603
21
43.8366108
0
LINE
8
0
10
69.3610603
20
43.8366108
11
71.2425726
21
61.7380049
0
LINE
8
0
10
100.8336746
20
-7.625778
11
87.8855582
21
-20.1296286
0
LINE
8
0
10
87.8855582
20
-20.1296286
11
75.3817076
21
-7.1815122
0
LINE
8
0
10
75.3817076
20
-7.1815122
11
88.329824
21
5.3223384
0
LINE
8
0
10
88.329824
20
5.3223384
11
100.8336746
21
-7.625778
0
LINE
8
0
10
114.4949328
20
-24.2190431
11
99.5722565
21
-34.2845154
0
LINE
8
0
10
99.5722565
20
-34.2845154
11
89.5067842
21
-19.3618391
0
LINE
8
0
10
89.5067842
20
-19.3618391
11
104.4294605
21
-9.2963668
0
LINE
8
0
10
104.4294605
20
-9.2963668
11
114.4949328
21
-24.2190431
0
LINE
8
0
10
125.0672555
20
-42.9324719
11
108.6234373
21
-50.2537315
0
LINE
8
0
10
108.6234373
20
-50.2537315
11
101.3021777
21
-33.8099133
0
LINE
8
0
10
101.3021777
20
-33.8099133
11
117.7459959
21
-26.4886537
0
LINE
8
0
10
117.7459959
20
-26.4886537
11
125.0672555
21
-42.9324719
0
LINE
8
0
10
73.485415
20
-11.2413958
11
60.5372986
21
-23.7452464
0
LINE
8
0
10
60.5372986
20
-23.7452464
11
48.033448
21
-10.79713
0
LINE
8
0
10
48.033448
20
-10.79713
11
60.9815644
21
1.7067206
0
LINE
8
0
10
60.9815644
20
1.7067206
11
73.485415
21
-11.2413958
0
LINE
8
0
10
87.1466732
20
-27.8346609
11
72.2239969
21
-37.9001332
0
LINE
8
0
10
72.2239969
20
-37.9001332
11
62.1585246
21
-22.9774569
0
LINE
8
0
10
62.1585246
20
-22.9774569
11
77.0812009
21
-12.9119846
0
LINE
8
0
10
77.0812009
20
-12.9119846
11
87.1466732
21
-27.8346609
0
LINE
8
0
10
97.7189959
20
-46.5480897
11
81.2751777
21
-53.8693493
0
LINE
8
0
10
81.2751777
20
-53.8693493
11
73.9539181
21
-37.4255311
0
LINE
8
0
10
73.9539181
20
-37.4255311
11
90.3977363
21
-30.1042715
0
LINE
8
0
10
90.3977363
20
-30.1042715
11
97.7189959
21
-46.5480897
0
ENDSEC
0
EOF