0
SECTION
2
HEADER
9
$INSUNITS
70
4
0
ENDSEC
0
SECTION
2
TABLES
0
TABLE
2
LTYPE
0
LTYPE
72
65
70
64
2
CONTINUOUS
3
______
73
0
40
0
0
ENDTAB
0
TABLE
2
LAYER
0
ENDTAB
0
ENDSEC
0
SECTION
2
ENTITIES
0
LINE
8
0
10
91
20
-91.5
11
109
21
-91.5
0
LINE
8
0
10
109
20
-91.5
11
109
21
-108.5
0
LINE
8
0
10
109
20
-108.5
11
91
21
-108.5
0
LINE
8
0
10
91
20
-108.5
11
91
21
-91.5
0
LINE
8
0
10
91
20
-74.5
11
109
21
-74.5
0
LINE
8
0
10
109
20
-74.5
11
109
21
-91.5
0
LINE
8
0
10
109
20
-91.5
11
91
21
-91.5
0
LINE
8
0
10
91
20
-91.5
11
91
21
-74.5
0
LINE
8
0
10
91
20
-57.5
11
109
21
-57.5
0
LINE
8
0
10
109
20
-57.5
11
109
21
-74.5
0
LINE
8
0
10
109
20
-74.5
11
91
21
-74.5
0
LINE
8
0
10
91
20
-74.5
11
91
21
-57.5
0
LINE
8
0
10
109.8021283
20
-84.1910825
11
127.7911632
21
-84.8192734
0
LINE
8
0
10
127.7911632
20
-84.8192734
11
127.1978717
21
-101.8089175
0
LINE
8
0
10
127.1978717
20
-101.8089175
11
109.2088368
21
-101.1807266
0
LINE
8
0
10
109.2088368
20
-101.1807266
11
109.8021283
21
-84.1910825
0
LINE
8
0
10
110.3954197
20
-67.2014384
11
128.3844546
21
-67.8296293
0
LINE
8
0
10
128.3844546
20
-67.8296293
11
127.7911631
21
-84.8192734
0
LINE
8
0
10
127.7911631
20
-84.8192734
11
109.8021282
21
-84.1910825
0
LINE
8
0
10
109.8021282
20
-84.1910825
11
110.3954197
21
-67.2014384
0
LINE
8
0
10
110.9887111
20
-50.2117943
11
128.977746
21
-50.8399852
0
LINE
8
0
10
128.977746
20
-50.8399852
11
128.3844545
21
-67.8296293
0
LINE
8
0
10
128.3844545
20
-67.8296293
11
110.3954196
21
-67.2014384
0
LINE
8
0
10
110.3954196
20
-67.2014384
11
110.9887111
21
-50.2117943
0
LINE
8
0
10
128.8478804
20
-77.5428022
11
146.8040333
21
-78.7984187
0
LINE
8
0
10
146.8040333
20
-78.7984187
11
145.6181732
21
-95.7570076
0
LINE
8
0
10
145.6181732
20
-95.7570076
11
127.6620203
21
-94.5013911
0
LINE
8
0
10
127.6620203
20
-94.5013911
11
128.8478804
21
-77.5428022
0
LINE
8
0
10
130.0337405
20
-60.5842133
11
147.9898934
21
-61.8398298
0
LINE
8
0
10
147.9898934
20
-61.8398298
11
146.8040333
21
-78.7984187
0
LINE
8
0
10
146.8040333
20
-78.7984187
11
128.8478804
21
-77.5428022
0
LINE
8
0
10
128.8478804
20
-77.5428022
11
130.0337405
21
-60.5842133
0
LINE
8
0
10
131.2196006
20
-43.6256244
11
149.1757535
21
-44.8812409
0
LINE
8
0
10
149.1757535
20
-44.8812409
11
147.9898934
21
-61.8398298
0
LINE
8
0
10
147.9898934
20
-61.8398298
11
130.0337405
21
-60.5842133
0
LINE
8
0
10
130.0337405
20
-60.5842133
11
131.2196006
21
-43.6256244
0
LINE
8
0
10
147.1374613
20
-85.5291557
11
165.0388554
21
-87.4106681
0
LINE
8
0
10
165.0388554
20
-87.4106681
11
163.2618715
21
-104.3175403
0
LINE
8
0
10
163.2618715
20
-104.3175403
11
145.3604774
21
-102.4360279
0
LINE
8
0
10
145.3604774
20
-102.4360279
11
147.1374613
21
-85.5291557
0
LINE
8
0
10
148.9144452
20
-68.6222835
11
166.8158393
21
-70.5037959
0
LINE
8
0
10
166.8158393
20
-70.5037959
11
165.0388554
21
-87.4106681
0
LINE
8
0
10
165.0388554
20
-87.4106681
11
147.1374613
21
-85.5291557
0
LINE
8
0
10
147.1374613
20
-85.5291557
11
148.9144452
21
-68.6222835
0
LINE
8
0
10
150.6914291
20
-51.7154113
11
168.5928232
21
-53.5969237
0
LINE
8
0
10
168.5928232
20
-53.5969237
11
166.8158393
21
-70.5037959
0
LINE
8
0
10
166.8158393
20
-70.5037959
11
148.9144452
21
-68.6222835
0
LINE
8
0
10
148.9144452
20
-68.6222835
11
150.6914291
21
-51.7154113
0
LINE
8
0
10
165.5361163
20
-87.4629323
11
183.4375104
21
-89.3444447
0
LINE
8
0
10
183.4375104
20
-89.3444447
11
181.6605265
21
-106.2513169
0
LINE
8
0
10
181.6605265
20
-106.2513169
11
163.7591324
21
-104.3698045
0
LINE
8
0
10
163.7591324
20
-104.3698045
11
165.5361163
21
-87.4629323
0
LINE
8
0
10
167.3131002
20
-70.5560601
11
185.2144943
21
-72.4375725
0
LINE
8
0
10
185.2144943
20
-72.4375725
11
183.4375104
21
-89.3444447
0
LINE
8
0
10
183.4375104
20
-89.3444447
11
165.5361163
21
-87.4629323
0
LINE
8
0
10
165.5361163
20
-87.4629323
11
167.3131002
21
-70.5560601
0
LINE
8
0
10
169.0900841
20
-53.6491879
11
186.9914782
21
-55.5307003
0
LINE
8
0
10
186.9914782
20
-55.5307003
11
185.2144943
21
-72.4375725
0
LINE
8
0
10
185.2144943
20
-72.4375725
11
167.3131002
21
-70.5560601
0
LINE
8
0
10
167.3131002
20
-70.5560601
11
169.0900841
21
-53.6491879
0
LINE
8
0
10
200.3559312
20
-108.6208545
11
191.0852459
21
-124.0498659
0
LINE
8
0
10
191.0852459
20
-124.0498659
11
176.5134018
21
-115.2942187
0
LINE
8
0
10
176.5134018
20
-115.2942187
11
185.7840871
21
-99.8652073
0
LINE
8
0
10
185.7840871
20
-99.8652073
11
200.3559312
21
-108.6208545
0
LINE
8
0
10
216.6118243
20
-120.2698565
11
204.8027618
21
-133.854629
0
LINE
8
0
10
204.8027618
20
-133.854629
11
191.9726989
21
-122.7016255
0
LINE
8
0
10
191.9726989
20
-122.7016255
11
203.7817614
21
-109.116853
0
LINE
8
0
10
203.7817614
20
-109.116853
11
216.6118243
21
-120.2698565
0
LINE
8
0
10
171.0915672
20
-113.9796046
11
162.6410791
21
-129.8726613
0
LINE
8
0
10
162.6410791
20
-129.8726613
11
147.63097
21
-121.8916448
0
LINE
8
0
10
147.63097
20
-121.8916448
11
156.0814581
21
-105.9985881
0
LINE
8
0
10
156.0814581
20
-105.9985881
11
171.0915672
21
-113.9796046
0
LINE
8
0
10
187.8207794
20
-124.1238799
11
177.4964035
21
-138.8686167
0
LINE
8
0
10
177.4964035
20
-138.8686167
11
163.5708188
21
-129.1178173
0
LINE
8
0
10
163.5708188
20
-129.1178173
11
173.8951947
21
-114.3730805
0
LINE
8
0
10
173.8951947
20
-114.3730805
11
187.8207794
21
-124.1238799
0
LINE
8
0
10
203.1890184
20
-136.2313194
11
191.1446675
21
-149.6079263
0
LINE
8
0
10
191.1446675
20
-149.6079263
11
178.5112054
21
-138.232706
0
LINE
8
0
10
178.5112054
20
-138.232706
11
190.5555563
21
-124.8560991
0
LINE
8
0
10
190.5555563
20
-124.8560991
11
203.1890184
21
-136.2313194
0
ENDSEC
0
EOF