<svg width="135.321mm" height="130.267mm" viewBox="0 0 135.321 130.267" xmlns="http://www.w3.org/2000/svg"><g id="svgGroup" stroke-linecap="round" fill-rule="evenodd" font-size="9pt" stroke="#000" stroke-width="0.25mm" fill="none" style="stroke:#000;stroke-width:0.25mm;fill:none"><path d="M 96.841 103.403 L 81.919 113.468 L 71.853 98.546 L 86.776 88.48 L 96.841 103.403 Z M 124.19 99.787 L 109.267 109.853 L 99.201 94.93 L 114.124 84.865 L 124.19 99.787 Z M 19.32 45.54 L 37.309 46.169 L 36.68 64.158 L 18.691 63.529 L 19.32 45.54 Z M 37.309 46.169 L 37.937 28.18 L 19.948 27.551 L 19.32 45.54 L 37.309 46.169 Z M 19.948 27.551 L 37.937 28.18 L 38.565 10.191 L 20.576 9.562 L 19.948 27.551 Z M 0 55.849 L 18 55.849 L 18 73.849 L 0 73.849 L 0 55.849 Z M 18 55.849 L 18 37.849 L 0 37.849 L 0 55.849 L 18 55.849 Z M 0 37.849 L 18 37.849 L 18 19.849 L 0 19.849 L 0 37.849 Z M 40.243 17.956 L 58.199 19.212 L 56.943 37.168 L 38.987 35.912 L 40.243 17.956 Z M 41.498 0 L 59.455 1.256 L 58.199 19.212 L 40.243 17.956 L 41.498 0 Z M 38.987 35.912 L 56.943 37.168 L 55.688 55.124 L 37.732 53.868 L 38.987 35.912 Z M 75.485 48.809 L 77.367 30.908 L 59.465 29.026 L 57.584 46.928 L 75.485 48.809 Z M 59.465 29.026 L 77.367 30.908 L 79.248 13.006 L 61.347 11.125 L 59.465 29.026 Z M 96.262 32.894 L 98.144 14.993 L 80.243 13.111 L 78.361 31.012 L 96.262 32.894 Z M 57.584 46.928 L 75.485 48.809 L 73.604 66.711 L 55.702 64.829 L 57.584 46.928 Z M 76.48 48.914 L 94.381 50.795 L 92.499 68.697 L 74.598 66.815 L 76.48 48.914 Z M 78.361 31.012 L 96.262 32.894 L 94.381 50.795 L 76.48 48.914 L 78.361 31.012 Z M 107.973 122.945 L 91.529 130.267 L 84.208 113.823 L 100.652 106.502 L 107.973 122.945 Z M 135.321 119.33 L 118.877 126.651 L 111.556 110.207 L 128 102.886 L 135.321 119.33 Z M 109.834 82.475 L 96.886 94.979 L 84.382 82.031 L 97.33 69.527 L 109.834 82.475 Z M 82.485 86.09 L 69.537 98.594 L 57.033 85.646 L 69.982 73.142 L 82.485 86.09 Z" vector-effect="non-scaling-stroke"/></g></svg>