<svg width="125.989mm" height="106.816mm" viewBox="0 0 125.989 106.816" xmlns="http://www.w3.org/2000/svg"><g id="svgGroup" stroke-linecap="round" fill-rule="evenodd" font-size="9pt" stroke="#000" stroke-width="0.25mm" fill="none" style="stroke:#000;stroke-width:0.25mm;fill:none"><path d="M 125.989 77.471 L 114.18 91.056 L 100.595 79.247 L 112.404 65.662 L 125.989 77.471 Z M 112.561 93.439 L 100.516 106.816 L 87.14 94.771 L 99.184 81.395 L 112.561 93.439 Z M 109.785 65.752 L 100.514 81.181 L 85.085 71.91 L 94.356 56.481 L 109.785 65.752 Z M 18.82 40.565 L 36.809 41.193 L 36.18 59.182 L 18.191 58.554 L 18.82 40.565 Z M 19.413 23.575 L 37.402 24.203 L 36.774 42.192 L 18.785 41.564 L 19.413 23.575 Z M 20.006 6.585 L 37.995 7.213 L 37.367 25.202 L 19.378 24.574 L 20.006 6.585 Z M 80.533 71.087 L 72.083 86.981 L 56.189 78.53 L 64.64 62.637 L 80.533 71.087 Z M 0 47.873 L 18 47.873 L 18 65.873 L 0 65.873 L 0 47.873 Z M 0 30.873 L 18 30.873 L 18 48.873 L 0 48.873 L 0 30.873 Z M 0 13.873 L 18 13.873 L 18 31.873 L 0 31.873 L 0 13.873 Z M 39.069 16.959 L 57.025 18.214 L 55.769 36.17 L 37.813 34.915 L 39.069 16.959 Z M 40.254 0 L 58.211 1.256 L 56.955 19.212 L 38.999 17.956 L 40.254 0 Z M 37.883 33.917 L 55.839 35.173 L 54.583 53.129 L 36.627 51.873 L 37.883 33.917 Z M 56.19 41.905 L 74.091 43.787 L 72.21 61.688 L 54.308 59.806 L 56.19 41.905 Z M 76.365 26.932 L 94.267 28.813 L 92.385 46.715 L 74.484 44.833 L 76.365 26.932 Z M 78.142 10.025 L 96.044 11.907 L 94.162 29.808 L 76.261 27.926 L 78.142 10.025 Z M 57.967 24.998 L 75.868 26.88 L 73.987 44.781 L 56.085 42.9 L 57.967 24.998 Z M 59.744 8.091 L 77.645 9.973 L 75.764 27.874 L 57.862 25.993 L 59.744 8.091 Z M 74.588 43.839 L 92.49 45.72 L 90.608 63.622 L 72.707 61.74 L 74.588 43.839 Z M 97.23 81.284 L 86.906 96.029 L 72.161 85.704 L 82.486 70.959 L 97.23 81.284 Z" vector-effect="non-scaling-stroke"/></g></svg>