<svg width="125.234mm" height="118.666mm" viewBox="0 0 125.234 118.666" xmlns="http://www.w3.org/2000/svg"><g id="svgGroup" stroke-linecap="round" fill-rule="evenodd" font-size="9pt" stroke="#000" stroke-width="0.25mm" fill="none" style="stroke:#000;stroke-width:0.25mm;fill:none"><path d="M 49.248 77.201 L 2.378 67.272 A 3 3 0 0 1 0 64.338 L 0 15.945 A 3 3 0 0 1 2.069 13.093 L 41.731 0.148 A 3 3 0 0 1 42.871 0.007 L 59.935 1.201 A 3 3 0 0 1 60.541 1.306 L 95.658 11.222 A 3 3 0 0 1 97.826 14.423 L 92.808 62.169 A 3 3 0 0 0 93.708 64.641 L 105.274 75.802 A 3 3 0 0 1 105.548 76.106 L 117.829 91.71 A 3 3 0 0 1 118.212 92.345 L 124.974 107.534 A 3 3 0 0 1 123.454 111.495 L 108.491 118.157 A 3 3 0 0 1 107.303 118.416 L 83.726 118.665 A 3 3 0 0 1 81.066 117.113 L 74.042 104.362 A 3 3 0 0 0 73.658 103.818 L 50.87 78.145 A 3 3 0 0 0 49.248 77.201 Z M 117.426 93.654 L 101.439 100.772 L 108.15 115.845 L 124.137 108.728 L 117.426 93.654 Z M 91.841 94.843 L 75.854 101.961 L 82.565 117.034 L 98.553 109.916 L 91.841 94.843 Z M 55.635 59.482 L 73.039 61.311 L 74.764 44.902 L 57.36 43.073 L 55.635 59.482 Z M 57.412 42.575 L 74.816 44.405 L 76.541 27.995 L 59.137 26.166 L 57.412 42.575 Z M 74.034 61.416 L 91.438 63.245 L 93.163 46.836 L 75.759 45.006 L 74.034 61.416 Z M 75.811 44.509 L 93.215 46.338 L 94.94 29.929 L 77.536 28.099 L 75.811 44.509 Z M 59.189 25.668 L 76.593 27.498 L 78.318 11.088 L 60.914 9.259 L 59.189 25.668 Z M 77.588 27.602 L 94.992 29.431 L 96.717 13.022 L 79.313 11.193 L 77.588 27.602 Z M 105.084 77.68 L 90.576 87.466 L 99.803 101.145 L 114.311 91.359 L 105.084 77.68 Z M 79.499 78.869 L 64.991 88.654 L 74.218 102.334 L 88.726 92.548 L 79.499 78.869 Z M 1.25 65.519 L 18.75 65.519 L 18.75 49.019 L 1.25 49.019 L 1.25 65.519 Z M 1.25 48.519 L 18.75 48.519 L 18.75 32.019 L 1.25 32.019 L 1.25 48.519 Z M 1.25 31.519 L 18.75 31.519 L 18.75 15.019 L 1.25 15.019 L 1.25 31.519 Z M 64.57 65.281 L 51.982 77.437 L 63.444 89.306 L 76.032 77.15 L 64.57 65.281 Z M 90.155 64.092 L 77.567 76.248 L 89.029 88.118 L 101.617 75.961 L 90.155 64.092 Z M 37.929 51.538 L 55.386 52.759 L 56.537 36.299 L 39.08 35.078 L 37.929 51.538 Z M 39.115 34.58 L 56.572 35.8 L 57.723 19.34 L 40.266 18.12 L 39.115 34.58 Z M 40.301 17.621 L 57.758 18.842 L 58.909 2.382 L 41.452 1.161 L 40.301 17.621 Z M 19.467 58.208 L 36.957 58.819 L 37.533 42.329 L 20.043 41.718 L 19.467 58.208 Z M 20.061 41.219 L 37.55 41.829 L 38.126 25.339 L 20.637 24.729 L 20.061 41.219 Z M 20.654 24.229 L 38.143 24.84 L 38.719 8.35 L 21.23 7.739 L 20.654 24.229 Z" vector-effect="non-scaling-stroke"/></g></svg>