<svg width="122.887mm" height="115.873mm" viewBox="0 0 122.887 115.873" xmlns="http://www.w3.org/2000/svg"><g id="svgGroup" stroke-linecap="round" fill-rule="evenodd" font-size="9pt" stroke="#000" stroke-width="0.25mm" fill="none" style="stroke:#000;stroke-width:0.25mm;fill:none"><path d="M 116.176 92.493 L 100.189 99.611 L 106.9 114.684 L 122.887 107.566 L 116.176 92.493 Z M 90.591 93.681 L 74.604 100.799 L 81.315 115.873 L 97.303 108.755 L 90.591 93.681 Z M 54.385 58.321 L 71.789 60.15 L 73.514 43.741 L 56.11 41.911 L 54.385 58.321 Z M 56.162 41.414 L 73.566 43.243 L 75.291 26.834 L 57.887 25.005 L 56.162 41.414 Z M 72.784 60.255 L 90.188 62.084 L 91.913 45.674 L 74.509 43.845 L 72.784 60.255 Z M 74.561 43.348 L 91.965 45.177 L 93.69 28.768 L 76.286 26.938 L 74.561 43.348 Z M 57.939 24.507 L 75.343 26.337 L 77.068 9.927 L 59.664 8.098 L 57.939 24.507 Z M 76.338 26.441 L 93.742 28.27 L 95.467 11.861 L 78.063 10.031 L 76.338 26.441 Z M 103.834 76.519 L 89.326 86.305 L 98.553 99.984 L 113.061 90.198 L 103.834 76.519 Z M 78.249 77.707 L 63.741 87.493 L 72.968 101.172 L 87.476 91.387 L 78.249 77.707 Z M 0 64.358 L 17.5 64.358 L 17.5 47.858 L 0 47.858 L 0 64.358 Z M 0 47.358 L 17.5 47.358 L 17.5 30.858 L 0 30.858 L 0 47.358 Z M 0 30.358 L 17.5 30.358 L 17.5 13.858 L 0 13.858 L 0 30.358 Z M 63.32 64.119 L 50.732 76.276 L 62.194 88.145 L 74.782 75.988 L 63.32 64.119 Z M 88.905 62.931 L 76.317 75.087 L 87.779 86.956 L 100.367 74.8 L 88.905 62.931 Z M 36.679 50.377 L 54.136 51.598 L 55.287 35.138 L 37.83 33.917 L 36.679 50.377 Z M 37.865 33.418 L 55.322 34.639 L 56.473 18.179 L 39.016 16.959 L 37.865 33.418 Z M 39.051 16.46 L 56.508 17.681 L 57.659 1.221 L 40.202 0 L 39.051 16.46 Z M 18.217 57.047 L 35.707 57.658 L 36.283 41.168 L 18.793 40.557 L 18.217 57.047 Z M 18.811 40.058 L 36.3 40.668 L 36.876 24.178 L 19.387 23.568 L 18.811 40.058 Z M 19.404 23.068 L 36.893 23.679 L 37.469 7.189 L 19.98 6.578 L 19.404 23.068 Z" vector-effect="non-scaling-stroke"/></g></svg>