0
SECTION
2
HEADER
9
$INSUNITS
70
4
0
ENDSEC
0
SECTION
2
TABLES
0
TABLE
2
LTYPE
0
LTYPE
72
65
70
64
2
CONTINUOUS
3
______
73
0
40
0
0
ENDTAB
0
TABLE
2
LAYER
0
ENDTAB
0
ENDSEC
0
SECTION
2
ENTITIES
0
LINE
8
0
10
-8.75
20
-1.25
11
8.75
21
-1.25
0
LINE
8
0
10
8.75
20
-1.25
11
8.75
21
15.25
0
LINE
8
0
10
8.75
20
15.25
11
-8.75
21
15.25
0
LINE
8
0
10
-8.75
20
15.25
11
-8.75
21
-1.25
0
LINE
8
0
10
-8.75
20
15.75
11
8.75
21
15.75
0
LINE
8
0
10
8.75
20
15.75
11
8.75
21
32.25
0
LINE
8
0
10
8.75
20
32.25
11
-8.75
21
32.25
0
LINE
8
0
10
-8.75
20
32.25
11
-8.75
21
15.75
0
LINE
8
0
10
-8.75
20
32.75
11
8.75
21
32.75
0
LINE
8
0
10
8.75
20
32.75
11
8.75
21
49.25
0
LINE
8
0
10
8.75
20
49.25
11
-8.75
21
49.25
0
LINE
8
0
10
-8.75
20
49.25
11
-8.75
21
32.75
0
LINE
8
0
10
9.4674094
20
6.0603963
11
26.9567489
21
5.4496551
0
LINE
8
0
10
26.9567489
20
5.4496551
11
27.5325906
21
21.9396037
0
LINE
8
0
10
27.5325906
20
21.9396037
11
10.0432511
21
22.5503449
0
LINE
8
0
10
10.0432511
20
22.5503449
11
9.4674094
21
6.0603963
0
LINE
8
0
10
10.0607008
20
23.0500404
11
27.5500403
21
22.4392992
0
LINE
8
0
10
27.5500403
20
22.4392992
11
28.125882
21
38.9292478
0
LINE
8
0
10
28.125882
20
38.9292478
11
10.6365425
21
39.539989
0
LINE
8
0
10
10.6365425
20
39.539989
11
10.0607008
21
23.0500404
0
LINE
8
0
10
10.6539922
20
40.0396845
11
28.1433317
21
39.4289433
0
LINE
8
0
10
28.1433317
20
39.4289433
11
28.7191734
21
55.9188919
0
LINE
8
0
10
28.7191734
20
55.9188919
11
11.2298339
21
56.5296331
0
LINE
8
0
10
11.2298339
20
56.5296331
11
10.6539922
21
40.0396845
0
LINE
8
0
10
27.9288505
20
12.7305608
11
45.3862213
21
11.5098225
0
LINE
8
0
10
45.3862213
20
11.5098225
11
46.5372031
21
27.9696294
0
LINE
8
0
10
46.5372031
20
27.9696294
11
29.0798323
21
29.1903677
0
LINE
8
0
10
29.0798323
20
29.1903677
11
27.9288505
21
12.7305608
0
LINE
8
0
10
29.1147106
20
29.6891497
11
46.5720814
21
28.4684114
0
LINE
8
0
10
46.5720814
20
28.4684114
11
47.7230632
21
44.9282183
0
LINE
8
0
10
47.7230632
20
44.9282183
11
30.2656924
21
46.1489566
0
LINE
8
0
10
30.2656924
20
46.1489566
11
29.1147106
21
29.6891497
0
LINE
8
0
10
30.3005707
20
46.6477386
11
47.7579415
21
45.4270003
0
LINE
8
0
10
47.7579415
20
45.4270003
11
48.9089233
21
61.8868072
0
LINE
8
0
10
48.9089233
20
61.8868072
11
31.4515525
21
63.1075455
0
LINE
8
0
10
31.4515525
20
63.1075455
11
30.3005707
21
46.6477386
0
LINE
8
0
10
45.63524
20
4.7864704
11
63.0393732
21
2.9572223
0
LINE
8
0
10
63.0393732
20
2.9572223
11
64.7640928
21
19.3668336
0
LINE
8
0
10
64.7640928
20
19.3668336
11
47.3599596
21
21.1960817
0
LINE
8
0
10
47.3599596
20
21.1960817
11
45.63524
21
4.7864704
0
LINE
8
0
10
47.4122239
20
21.6933426
11
64.8163571
21
19.8640945
0
LINE
8
0
10
64.8163571
20
19.8640945
11
66.5410767
21
36.2737058
0
LINE
8
0
10
66.5410767
20
36.2737058
11
49.1369435
21
38.1029539
0
LINE
8
0
10
49.1369435
20
38.1029539
11
47.4122239
21
21.6933426
0
LINE
8
0
10
49.1892078
20
38.6002148
11
66.593341
21
36.7709667
0
LINE
8
0
10
66.593341
20
36.7709667
11
68.3180606
21
53.180578
0
LINE
8
0
10
68.3180606
20
53.180578
11
50.9139274
21
55.0098261
0
LINE
8
0
10
50.9139274
20
55.0098261
11
49.1892078
21
38.6002148
0
LINE
8
0
10
64.033895
20
2.8526938
11
81.4380282
21
1.0234457
0
LINE
8
0
10
81.4380282
20
1.0234457
11
83.1627478
21
17.433057
0
LINE
8
0
10
83.1627478
20
17.433057
11
65.7586146
21
19.2623051
0
LINE
8
0
10
65.7586146
20
19.2623051
11
64.033895
21
2.8526938
0
LINE
8
0
10
65.8108789
20
19.759566
11
83.2150121
21
17.9303179
0
LINE
8
0
10
83.2150121
20
17.9303179
11
84.9397317
21
34.3399292
0
LINE
8
0
10
84.9397317
20
34.3399292
11
67.5355985
21
36.1691773
0
LINE
8
0
10
67.5355985
20
36.1691773
11
65.8108789
21
19.759566
0
LINE
8
0
10
67.5878628
20
36.6664382
11
84.991996
21
34.8371901
0
LINE
8
0
10
84.991996
20
34.8371901
11
86.7167156
21
51.2468014
0
LINE
8
0
10
86.7167156
20
51.2468014
11
69.3125824
21
53.0760495
0
LINE
8
0
10
69.3125824
20
53.0760495
11
67.5878628
21
36.6664382
0
LINE
8
0
10
85.8696194
20
6.7917414
11
76.8564531
21
-8.2086864
0
LINE
8
0
10
76.8564531
20
-8.2086864
11
90.9997136
21
-16.7068146
0
LINE
8
0
10
90.9997136
20
-16.7068146
11
100.0128799
21
-1.7063868
0
LINE
8
0
10
100.0128799
20
-1.7063868
11
85.8696194
21
6.7917414
0
LINE
8
0
10
103.8064241
20
-2.4695452
11
92.3253911
21
-15.6769628
0
LINE
8
0
10
92.3253911
20
-15.6769628
11
104.7780991
21
-26.5019368
0
LINE
8
0
10
104.7780991
20
-26.5019368
11
116.2591321
21
-13.2945192
0
LINE
8
0
10
116.2591321
20
-13.2945192
11
103.8064241
21
-2.4695452
0
LINE
8
0
10
56.1848271
20
0.6633071
11
47.9690748
21
-14.7882757
0
LINE
8
0
10
47.9690748
20
-14.7882757
11
62.5377101
21
-22.5345565
0
LINE
8
0
10
62.5377101
20
-22.5345565
11
70.7534624
21
-7.0829737
0
LINE
8
0
10
70.7534624
20
-7.0829737
11
56.1848271
21
0.6633071
0
LINE
8
0
10
73.9565886
20
-7.7212626
11
63.9190009
21
-22.0564234
0
LINE
8
0
10
63.9190009
20
-22.0564234
11
77.4350096
21
-31.5204346
0
LINE
8
0
10
77.4350096
20
-31.5204346
11
87.4725973
21
-17.1852738
0
LINE
8
0
10
87.4725973
20
-17.1852738
11
73.9565886
21
-7.7212626
0
LINE
8
0
10
90.5740599
20
-18.209168
11
78.8642743
21
-31.2142024
0
LINE
8
0
10
78.8642743
20
-31.2142024
11
91.1261639
21
-42.2548574
0
LINE
8
0
10
91.1261639
20
-42.2548574
11
102.8359495
21
-29.249823
0
LINE
8
0
10
102.8359495
20
-29.249823
11
90.5740599
21
-18.209168
0
ENDSEC
0
EOF