0
SECTION
2
HEADER
9
$INSUNITS
70
4
0
ENDSEC
0
SECTION
2
TABLES
0
TABLE
2
LTYPE
0
LTYPE
72
65
70
64
2
CONTINUOUS
3
______
73
0
40
0
0
ENDTAB
0
TABLE
2
LAYER
0
ENDTAB
0
ENDSEC
0
SECTION
2
ENTITIES
0
LINE
8
0
10
145.8441082
20
-122.2062716
11
92.3344179
21
-110.0311527
0
LINE
8
0
10
90
20
-107.1059176
11
90
21
-58.6765749
0
LINE
8
0
10
92.0691477
20
-55.8246433
11
131.7305897
21
-42.8793999
0
LINE
8
0
10
132.8707115
20
-42.7386394
11
150.0294312
21
-43.938494
0
LINE
8
0
10
150.4524282
20
-43.9985698
11
208.3426098
21
-56.4795802
0
LINE
8
0
10
210.6951774
20
-59.7134694
11
205.828289
21
-107.9317442
0
LINE
8
0
10
206.8497055
20
-110.5012746
11
216.1274506
21
-118.532148
0
LINE
8
0
10
216.42862
20
-122.7680553
11
193.4808071
21
-149.1789116
0
LINE
8
0
10
189.3406094
20
-149.5526467
11
177.9259145
21
-140.4086901
0
LINE
8
0
10
177.5372922
20
-140.14453
11
146.6655146
21
-122.5259616
0
ARC
8
0
10
93
20
-107.1059176
40
3
50
180
51
257.181656
0
ARC
8
0
10
93
20
-58.6765749
40
3
50
108.0763521
51
180
0
ARC
8
0
10
132.661442
20
-45.7313315
40
3
50
85.9999983
51
108.0763521
0
ARC
8
0
10
149.8201617
20
-46.9311861
40
3
50
77.8333698
51
85.9999983
0
ARC
8
0
10
207.7103433
20
-59.4121965
40
3
50
354.2363959
51
77.8333698
0
ARC
8
0
10
208.8131231
20
-108.2330171
40
3
50
174.2363959
51
229.1203356
0
ARC
8
0
10
214.1640331
20
-120.8004054
40
3
50
319.0133395
51
49.1203356
0
ARC
8
0
10
191.2162202
20
-147.2112617
40
3
50
231.3028674
51
319.0133395
0
ARC
8
0
10
176.0503038
20
-142.7500751
40
3
50
51.3028674
51
60.286533
0
ARC
8
0
10
145.1785262
20
-125.1315067
40
3
50
60.286533
51
77.181656
0
LINE
8
0
10
91.25
20
-108.25
11
108.75
21
-108.25
0
LINE
8
0
10
108.75
20
-108.25
11
108.75
21
-91.75
0
LINE
8
0
10
108.75
20
-91.75
11
91.25
21
-91.75
0
LINE
8
0
10
91.25
20
-91.75
11
91.25
21
-108.25
0
LINE
8
0
10
91.25
20
-91.25
11
108.75
21
-91.25
0
LINE
8
0
10
108.75
20
-91.25
11
108.75
21
-74.75
0
LINE
8
0
10
108.75
20
-74.75
11
91.25
21
-74.75
0
LINE
8
0
10
91.25
20
-74.75
11
91.25
21
-91.25
0
LINE
8
0
10
91.25
20
-74.25
11
108.75
21
-74.25
0
LINE
8
0
10
108.75
20
-74.25
11
108.75
21
-57.75
0
LINE
8
0
10
108.75
20
-57.75
11
91.25
21
-57.75
0
LINE
8
0
10
91.25
20
-57.75
11
91.25
21
-74.25
0
LINE
8
0
10
109.4674094
20
-100.9396037
11
126.9567489
21
-101.5503449
0
LINE
8
0
10
126.9567489
20
-101.5503449
11
127.5325906
21
-85.0603963
0
LINE
8
0
10
127.5325906
20
-85.0603963
11
110.0432511
21
-84.4496551
0
LINE
8
0
10
110.0432511
20
-84.4496551
11
109.4674094
21
-100.9396037
0
LINE
8
0
10
110.0607008
20
-83.9499596
11
127.5500403
21
-84.5607008
0
LINE
8
0
10
127.5500403
20
-84.5607008
11
128.125882
21
-68.0707522
0
LINE
8
0
10
128.125882
20
-68.0707522
11
110.6365425
21
-67.460011
0
LINE
8
0
10
110.6365425
20
-67.460011
11
110.0607008
21
-83.9499596
0
LINE
8
0
10
110.6539922
20
-66.9603155
11
128.1433317
21
-67.5710567
0
LINE
8
0
10
128.1433317
20
-67.5710567
11
128.7191734
21
-51.0811081
0
LINE
8
0
10
128.7191734
20
-51.0811081
11
111.2298339
21
-50.4703669
0
LINE
8
0
10
111.2298339
20
-50.4703669
11
110.6539922
21
-66.9603155
0
LINE
8
0
10
127.9288505
20
-94.2694392
11
145.3862213
21
-95.4901775
0
LINE
8
0
10
145.3862213
20
-95.4901775
11
146.5372031
21
-79.0303706
0
LINE
8
0
10
146.5372031
20
-79.0303706
11
129.0798323
21
-77.8096323
0
LINE
8
0
10
129.0798323
20
-77.8096323
11
127.9288505
21
-94.2694392
0
LINE
8
0
10
129.1147106
20
-77.3108503
11
146.5720814
21
-78.5315886
0
LINE
8
0
10
146.5720814
20
-78.5315886
11
147.7230632
21
-62.0717817
0
LINE
8
0
10
147.7230632
20
-62.0717817
11
130.2656924
21
-60.8510434
0
LINE
8
0
10
130.2656924
20
-60.8510434
11
129.1147106
21
-77.3108503
0
LINE
8
0
10
130.3005707
20
-60.3522614
11
147.7579415
21
-61.5729997
0
LINE
8
0
10
147.7579415
20
-61.5729997
11
148.9089233
21
-45.1131928
0
LINE
8
0
10
148.9089233
20
-45.1131928
11
131.4515525
21
-43.8924545
0
LINE
8
0
10
131.4515525
20
-43.8924545
11
130.3005707
21
-60.3522614
0
LINE
8
0
10
145.63524
20
-102.2135296
11
163.0393732
21
-104.0427777
0
LINE
8
0
10
163.0393732
20
-104.0427777
11
164.7640928
21
-87.6331664
0
LINE
8
0
10
164.7640928
20
-87.6331664
11
147.3599596
21
-85.8039183
0
LINE
8
0
10
147.3599596
20
-85.8039183
11
145.63524
21
-102.2135296
0
LINE
8
0
10
147.4122239
20
-85.3066574
11
164.8163571
21
-87.1359055
0
LINE
8
0
10
164.8163571
20
-87.1359055
11
166.5410767
21
-70.7262942
0
LINE
8
0
10
166.5410767
20
-70.7262942
11
149.1369435
21
-68.8970461
0
LINE
8
0
10
149.1369435
20
-68.8970461
11
147.4122239
21
-85.3066574
0
LINE
8
0
10
149.1892078
20
-68.3997852
11
166.593341
21
-70.2290333
0
LINE
8
0
10
166.593341
20
-70.2290333
11
168.3180606
21
-53.819422
0
LINE
8
0
10
168.3180606
20
-53.819422
11
150.9139274
21
-51.9901739
0
LINE
8
0
10
150.9139274
20
-51.9901739
11
149.1892078
21
-68.3997852
0
LINE
8
0
10
164.033895
20
-104.1473062
11
181.4380282
21
-105.9765543
0
LINE
8
0
10
181.4380282
20
-105.9765543
11
183.1627478
21
-89.566943
0
LINE
8
0
10
183.1627478
20
-89.566943
11
165.7586146
21
-87.7376949
0
LINE
8
0
10
165.7586146
20
-87.7376949
11
164.033895
21
-104.1473062
0
LINE
8
0
10
165.8108789
20
-87.240434
11
183.2150121
21
-89.0696821
0
LINE
8
0
10
183.2150121
20
-89.0696821
11
184.9397317
21
-72.6600708
0
LINE
8
0
10
184.9397317
20
-72.6600708
11
167.5355985
21
-70.8308227
0
LINE
8
0
10
167.5355985
20
-70.8308227
11
165.8108789
21
-87.240434
0
LINE
8
0
10
167.5878628
20
-70.3335618
11
184.991996
21
-72.1628099
0
LINE
8
0
10
184.991996
20
-72.1628099
11
186.7167156
21
-55.7531986
0
LINE
8
0
10
186.7167156
20
-55.7531986
11
169.3125824
21
-53.9239505
0
LINE
8
0
10
169.3125824
20
-53.9239505
11
167.5878628
21
-70.3335618
0
LINE
8
0
10
185.8696194
20
-100.2082586
11
176.8564531
21
-115.2086864
0
LINE
8
0
10
176.8564531
20
-115.2086864
11
190.9997136
21
-123.7068146
0
LINE
8
0
10
190.9997136
20
-123.7068146
11
200.0128799
21
-108.7063868
0
LINE
8
0
10
200.0128799
20
-108.7063868
11
185.8696194
21
-100.2082586
0
LINE
8
0
10
203.8064241
20
-109.4695452
11
192.3253911
21
-122.6769628
0
LINE
8
0
10
192.3253911
20
-122.6769628
11
204.7780991
21
-133.5019368
0
LINE
8
0
10
204.7780991
20
-133.5019368
11
216.2591321
21
-120.2945192
0
LINE
8
0
10
216.2591321
20
-120.2945192
11
203.8064241
21
-109.4695452
0
LINE
8
0
10
156.1848271
20
-106.3366929
11
147.9690748
21
-121.7882757
0
LINE
8
0
10
147.9690748
20
-121.7882757
11
162.5377101
21
-129.5345565
0
LINE
8
0
10
162.5377101
20
-129.5345565
11
170.7534624
21
-114.0829737
0
LINE
8
0
10
170.7534624
20
-114.0829737
11
156.1848271
21
-106.3366929
0
LINE
8
0
10
173.9565886
20
-114.7212626
11
163.9190009
21
-129.0564234
0
LINE
8
0
10
163.9190009
20
-129.0564234
11
177.4350096
21
-138.5204346
0
LINE
8
0
10
177.4350096
20
-138.5204346
11
187.4725973
21
-124.1852738
0
LINE
8
0
10
187.4725973
20
-124.1852738
11
173.9565886
21
-114.7212626
0
LINE
8
0
10
190.5740599
20
-125.209168
11
178.8642743
21
-138.2142024
0
LINE
8
0
10
178.8642743
20
-138.2142024
11
191.1261639
21
-149.2548574
0
LINE
8
0
10
191.1261639
20
-149.2548574
11
202.8359495
21
-136.249823
0
LINE
8
0
10
202.8359495
20
-136.249823
11
190.5740599
21
-125.209168
0
ENDSEC
0
EOF