<svg width="127.164mm" height="107.48mm" viewBox="0 0 127.164 107.48" xmlns="http://www.w3.org/2000/svg"><g id="svgGroup" stroke-linecap="round" fill-rule="evenodd" font-size="9pt" stroke="#000" stroke-width="0.25mm" fill="none" style="stroke:#000;stroke-width:0.25mm;fill:none"><path d="M 55.844 79.475 L 2.334 67.3 A 3 3 0 0 1 0 64.375 L 0 15.945 A 3 3 0 0 1 2.069 13.093 L 41.731 0.148 A 3 3 0 0 1 42.871 0.007 L 60.029 1.207 A 3 3 0 0 1 60.452 1.267 L 118.343 13.748 A 3 3 0 0 1 120.695 16.982 L 115.828 65.2 A 3 3 0 0 0 116.85 67.77 L 126.127 75.801 A 3 3 0 0 1 126.429 80.037 L 103.481 106.448 A 3 3 0 0 1 99.341 106.821 L 87.926 97.677 A 3 3 0 0 0 87.537 97.413 L 56.666 79.795 A 3 3 0 0 0 55.844 79.475 Z M 74.034 61.416 L 91.438 63.245 L 93.163 46.836 L 75.759 45.006 L 74.034 61.416 Z M 75.811 44.509 L 93.215 46.338 L 94.94 29.929 L 77.536 28.099 L 75.811 44.509 Z M 77.588 27.602 L 94.992 29.431 L 96.717 13.022 L 79.313 11.193 L 77.588 27.602 Z M 55.635 59.482 L 73.039 61.311 L 74.764 44.902 L 57.36 43.073 L 55.635 59.482 Z M 57.412 42.575 L 74.816 44.405 L 76.541 27.995 L 59.137 26.166 L 57.412 42.575 Z M 59.189 25.668 L 76.593 27.498 L 78.318 11.088 L 60.914 9.259 L 59.189 25.668 Z M 95.87 57.477 L 86.856 72.477 L 101 80.975 L 110.013 65.975 L 95.87 57.477 Z M 83.957 71.99 L 73.919 86.325 L 87.435 95.789 L 97.473 81.454 L 83.957 71.99 Z M 1.25 65.519 L 18.75 65.519 L 18.75 49.019 L 1.25 49.019 L 1.25 65.519 Z M 1.25 48.519 L 18.75 48.519 L 18.75 32.019 L 1.25 32.019 L 1.25 48.519 Z M 1.25 31.519 L 18.75 31.519 L 18.75 15.019 L 1.25 15.019 L 1.25 31.519 Z M 37.929 51.538 L 55.386 52.759 L 56.537 36.299 L 39.08 35.078 L 37.929 51.538 Z M 39.115 34.58 L 56.572 35.8 L 57.723 19.34 L 40.266 18.12 L 39.115 34.58 Z M 40.301 17.621 L 57.758 18.842 L 58.909 2.382 L 41.452 1.161 L 40.301 17.621 Z M 20.654 24.229 L 38.143 24.84 L 38.719 8.35 L 21.23 7.739 L 20.654 24.229 Z M 19.467 58.208 L 36.957 58.819 L 37.533 42.329 L 20.043 41.718 L 19.467 58.208 Z M 20.061 41.219 L 37.55 41.829 L 38.126 25.339 L 20.637 24.729 L 20.061 41.219 Z M 100.574 82.478 L 88.864 95.483 L 101.126 106.524 L 112.836 93.518 L 100.574 82.478 Z M 66.185 63.605 L 57.969 79.057 L 72.538 86.803 L 80.753 71.352 L 66.185 63.605 Z M 113.806 66.738 L 102.325 79.946 L 114.778 90.771 L 126.259 77.563 L 113.806 66.738 Z" vector-effect="non-scaling-stroke"/></g></svg>