0
SECTION
2
HEADER
9
$INSUNITS
70
4
0
ENDSEC
0
SECTION
2
TABLES
0
TABLE
2
LTYPE
0
LTYPE
72
65
70
64
2
CONTINUOUS
3
______
73
0
40
0
0
ENDTAB
0
TABLE
2
LAYER
0
ENDTAB
0
ENDSEC
0
SECTION
2
ENTITIES
0
LINE
8
0
10
39.2482322
20
-12.9328211
11
-7.6217272
21
-3.003817
0
LINE
8
0
10
-10
20
-0.0689481
11
-10
21
48.3234251
0
LINE
8
0
10
-7.9308523
20
51.1753567
11
31.7305897
21
64.1206001
0
LINE
8
0
10
32.8707115
20
64.2613606
11
49.9346407
21
63.0681344
0
LINE
8
0
10
50.5406242
20
62.9625451
11
85.6580051
21
53.0461834
0
LINE
8
0
10
87.8263178
20
49.845495
11
82.8080569
21
2.0999329
0
LINE
8
0
10
83.7083439
20
-0.3723444
11
95.2738224
21
-11.5337878
0
LINE
8
0
10
95.5480183
20
-11.8371321
11
107.8286185
21
-27.4413266
0
LINE
8
0
10
108.2117804
20
-28.0764642
11
114.974286
21
-43.2653007
0
LINE
8
0
10
113.4538594
20
-47.2261469
11
98.4909897
21
-53.8880456
0
LINE
8
0
10
97.3025218
20
-54.1472413
11
73.7257399
21
-54.3967108
0
LINE
8
0
10
71.0663495
20
-52.8444502
11
64.0419183
21
-40.0936218
0
LINE
8
0
10
63.6579347
20
-39.5497194
11
40.8701698
21
-13.8762162
0
ARC
8
0
10
-7
20
-0.0689481
40
3
50
180
51
258.0392011
0
ARC
8
0
10
-7
20
48.3234251
40
3
50
108.0763521
51
180
0
ARC
8
0
10
32.661442
20
61.2686685
40
3
50
85.9999983
51
108.0763521
0
ARC
8
0
10
49.7253712
20
60.0754423
40
3
50
74.2315119
51
85.9999983
0
ARC
8
0
10
84.8427521
20
50.1590805
40
3
50
353.9999979
51
74.2315119
0
ARC
8
0
10
85.7916225
20
1.7863474
40
3
50
173.9999979
51
226.0184883
0
ARC
8
0
10
93.1905438
20
-13.6924795
40
3
50
38.2029699
51
46.0184883
0
ARC
8
0
10
105.471144
20
-29.296674
40
3
50
23.9999968
51
38.2029699
0
ARC
8
0
10
112.2336496
20
-44.4855104
40
3
50
293.9999968
51
23.9999968
0
ARC
8
0
10
97.27078
20
-51.1474092
40
3
50
270.6062351
51
293.9999968
0
ARC
8
0
10
73.6939981
20
-51.3968787
40
3
50
208.8503671
51
270.6062351
0
ARC
8
0
10
61.4142698
20
-41.5411932
40
3
50
28.8503671
51
41.5922148
0
ARC
8
0
10
38.6265049
20
-15.86769
40
3
50
41.5922148
51
78.0392011
0
LINE
8
0
10
-8.75
20
-1.25
11
8.75
21
-1.25
0
LINE
8
0
10
8.75
20
-1.25
11
8.75
21
15.25
0
LINE
8
0
10
8.75
20
15.25
11
-8.75
21
15.25
0
LINE
8
0
10
-8.75
20
15.25
11
-8.75
21
-1.25
0
LINE
8
0
10
-8.75
20
15.75
11
8.75
21
15.75
0
LINE
8
0
10
8.75
20
15.75
11
8.75
21
32.25
0
LINE
8
0
10
8.75
20
32.25
11
-8.75
21
32.25
0
LINE
8
0
10
-8.75
20
32.25
11
-8.75
21
15.75
0
LINE
8
0
10
-8.75
20
32.75
11
8.75
21
32.75
0
LINE
8
0
10
8.75
20
32.75
11
8.75
21
49.25
0
LINE
8
0
10
8.75
20
49.25
11
-8.75
21
49.25
0
LINE
8
0
10
-8.75
20
49.25
11
-8.75
21
32.75
0
LINE
8
0
10
9.4674094
20
6.0603963
11
26.9567489
21
5.4496551
0
LINE
8
0
10
26.9567489
20
5.4496551
11
27.5325906
21
21.9396037
0
LINE
8
0
10
27.5325906
20
21.9396037
11
10.0432511
21
22.5503449
0
LINE
8
0
10
10.0432511
20
22.5503449
11
9.4674094
21
6.0603963
0
LINE
8
0
10
10.0607008
20
23.0500404
11
27.5500403
21
22.4392992
0
LINE
8
0
10
27.5500403
20
22.4392992
11
28.125882
21
38.9292478
0
LINE
8
0
10
28.125882
20
38.9292478
11
10.6365425
21
39.539989
0
LINE
8
0
10
10.6365425
20
39.539989
11
10.0607008
21
23.0500404
0
LINE
8
0
10
10.6539922
20
40.0396845
11
28.1433317
21
39.4289433
0
LINE
8
0
10
28.1433317
20
39.4289433
11
28.7191734
21
55.9188919
0
LINE
8
0
10
28.7191734
20
55.9188919
11
11.2298339
21
56.5296331
0
LINE
8
0
10
11.2298339
20
56.5296331
11
10.6539922
21
40.0396845
0
LINE
8
0
10
27.9288505
20
12.7305608
11
45.3862213
21
11.5098225
0
LINE
8
0
10
45.3862213
20
11.5098225
11
46.5372031
21
27.9696294
0
LINE
8
0
10
46.5372031
20
27.9696294
11
29.0798323
21
29.1903677
0
LINE
8
0
10
29.0798323
20
29.1903677
11
27.9288505
21
12.7305608
0
LINE
8
0
10
29.1147106
20
29.6891497
11
46.5720814
21
28.4684114
0
LINE
8
0
10
46.5720814
20
28.4684114
11
47.7230632
21
44.9282183
0
LINE
8
0
10
47.7230632
20
44.9282183
11
30.2656924
21
46.1489566
0
LINE
8
0
10
30.2656924
20
46.1489566
11
29.1147106
21
29.6891497
0
LINE
8
0
10
30.3005707
20
46.6477386
11
47.7579415
21
45.4270003
0
LINE
8
0
10
47.7579415
20
45.4270003
11
48.9089233
21
61.8868072
0
LINE
8
0
10
48.9089233
20
61.8868072
11
31.4515525
21
63.1075455
0
LINE
8
0
10
31.4515525
20
63.1075455
11
30.3005707
21
46.6477386
0
LINE
8
0
10
45.63524
20
4.7864704
11
63.0393732
21
2.9572223
0
LINE
8
0
10
63.0393732
20
2.9572223
11
64.7640928
21
19.3668336
0
LINE
8
0
10
64.7640928
20
19.3668336
11
47.3599596
21
21.1960817
0
LINE
8
0
10
47.3599596
20
21.1960817
11
45.63524
21
4.7864704
0
LINE
8
0
10
47.4122239
20
21.6933426
11
64.8163571
21
19.8640945
0
LINE
8
0
10
64.8163571
20
19.8640945
11
66.5410767
21
36.2737058
0
LINE
8
0
10
66.5410767
20
36.2737058
11
49.1369435
21
38.1029539
0
LINE
8
0
10
49.1369435
20
38.1029539
11
47.4122239
21
21.6933426
0
LINE
8
0
10
49.1892078
20
38.6002148
11
66.593341
21
36.7709667
0
LINE
8
0
10
66.593341
20
36.7709667
11
68.3180606
21
53.180578
0
LINE
8
0
10
68.3180606
20
53.180578
11
50.9139274
21
55.0098261
0
LINE
8
0
10
50.9139274
20
55.0098261
11
49.1892078
21
38.6002148
0
LINE
8
0
10
64.033895
20
2.8526938
11
81.4380282
21
1.0234457
0
LINE
8
0
10
81.4380282
20
1.0234457
11
83.1627478
21
17.433057
0
LINE
8
0
10
83.1627478
20
17.433057
11
65.7586146
21
19.2623051
0
LINE
8
0
10
65.7586146
20
19.2623051
11
64.033895
21
2.8526938
0
LINE
8
0
10
65.8108789
20
19.759566
11
83.2150121
21
17.9303179
0
LINE
8
0
10
83.2150121
20
17.9303179
11
84.9397317
21
34.3399292
0
LINE
8
0
10
84.9397317
20
34.3399292
11
67.5355985
21
36.1691773
0
LINE
8
0
10
67.5355985
20
36.1691773
11
65.8108789
21
19.759566
0
LINE
8
0
10
67.5878628
20
36.6664382
11
84.991996
21
34.8371901
0
LINE
8
0
10
84.991996
20
34.8371901
11
86.7167156
21
51.2468014
0
LINE
8
0
10
86.7167156
20
51.2468014
11
69.3125824
21
53.0760495
0
LINE
8
0
10
69.3125824
20
53.0760495
11
67.5878628
21
36.6664382
0
LINE
8
0
10
80.1553497
20
0.1767195
11
67.5669032
21
-11.979802
0
LINE
8
0
10
67.5669032
20
-11.979802
11
79.0287663
21
-23.8489087
0
LINE
8
0
10
79.0287663
20
-23.8489087
11
91.6172128
21
-11.6923872
0
LINE
8
0
10
91.6172128
20
-11.6923872
11
80.1553497
21
0.1767195
0
LINE
8
0
10
95.0839752
20
-13.411383
11
80.5758177
21
-23.1972588
0
LINE
8
0
10
80.5758177
20
-23.1972588
11
89.8025006
21
-36.8763788
0
LINE
8
0
10
89.8025006
20
-36.8763788
11
104.3106581
21
-27.090503
0
LINE
8
0
10
104.3106581
20
-27.090503
11
95.0839752
21
-13.411383
0
LINE
8
0
10
107.426252
20
-29.3853803
11
91.4392065
21
-36.5032716
0
LINE
8
0
10
91.4392065
20
-36.5032716
11
98.1503612
21
-51.5767717
0
LINE
8
0
10
98.1503612
20
-51.5767717
11
114.1374067
21
-44.4588804
0
LINE
8
0
10
114.1374067
20
-44.4588804
11
107.426252
21
-29.3853803
0
LINE
8
0
10
54.5704458
20
-1.0118474
11
41.9819993
21
-13.1683689
0
LINE
8
0
10
41.9819993
20
-13.1683689
11
53.4438624
21
-25.0374756
0
LINE
8
0
10
53.4438624
20
-25.0374756
11
66.0323089
21
-12.8809541
0
LINE
8
0
10
66.0323089
20
-12.8809541
11
54.5704458
21
-1.0118474
0
LINE
8
0
10
69.4990713
20
-14.5999499
11
54.9909138
21
-24.3858257
0
LINE
8
0
10
54.9909138
20
-24.3858257
11
64.2175967
21
-38.0649457
0
LINE
8
0
10
64.2175967
20
-38.0649457
11
78.7257542
21
-28.2790699
0
LINE
8
0
10
78.7257542
20
-28.2790699
11
69.4990713
21
-14.5999499
0
LINE
8
0
10
81.8413481
20
-30.5739472
11
65.8543026
21
-37.6918385
0
LINE
8
0
10
65.8543026
20
-37.6918385
11
72.5654573
21
-52.7653386
0
LINE
8
0
10
72.5654573
20
-52.7653386
11
88.5525028
21
-45.6474473
0
LINE
8
0
10
88.5525028
20
-45.6474473
11
81.8413481
21
-30.5739472
0
ENDSEC
0
EOF