<svg width="125.009mm" height="105.362mm" viewBox="0 0 125.009 105.362" xmlns="http://www.w3.org/2000/svg"><g id="svgGroup" stroke-linecap="round" fill-rule="evenodd" font-size="9pt" stroke="#000" stroke-width="0.25mm" fill="none" style="stroke:#000;stroke-width:0.25mm;fill:none"><path d="M 72.784 60.255 L 90.188 62.084 L 91.913 45.674 L 74.509 43.845 L 72.784 60.255 Z M 74.561 43.348 L 91.965 45.177 L 93.69 28.768 L 76.286 26.938 L 74.561 43.348 Z M 76.338 26.441 L 93.742 28.27 L 95.467 11.861 L 78.063 10.031 L 76.338 26.441 Z M 54.385 58.321 L 71.789 60.15 L 73.514 43.741 L 56.11 41.911 L 54.385 58.321 Z M 56.162 41.414 L 73.566 43.243 L 75.291 26.834 L 57.887 25.005 L 56.162 41.414 Z M 57.939 24.507 L 75.343 26.337 L 77.068 9.927 L 59.664 8.098 L 57.939 24.507 Z M 94.62 56.316 L 85.606 71.316 L 99.75 79.814 L 108.763 64.814 L 94.62 56.316 Z M 82.707 70.829 L 72.669 85.164 L 86.185 94.628 L 96.223 80.293 L 82.707 70.829 Z M 0 64.358 L 17.5 64.358 L 17.5 47.858 L 0 47.858 L 0 64.358 Z M 0 47.358 L 17.5 47.358 L 17.5 30.858 L 0 30.858 L 0 47.358 Z M 0 30.358 L 17.5 30.358 L 17.5 13.858 L 0 13.858 L 0 30.358 Z M 36.679 50.377 L 54.136 51.598 L 55.287 35.138 L 37.83 33.917 L 36.679 50.377 Z M 37.865 33.418 L 55.322 34.639 L 56.473 18.179 L 39.016 16.959 L 37.865 33.418 Z M 39.051 16.46 L 56.508 17.681 L 57.659 1.221 L 40.202 0 L 39.051 16.46 Z M 19.404 23.068 L 36.893 23.679 L 37.469 7.189 L 19.98 6.578 L 19.404 23.068 Z M 18.217 57.047 L 35.707 57.658 L 36.283 41.168 L 18.793 40.557 L 18.217 57.047 Z M 18.811 40.058 L 36.3 40.668 L 36.876 24.178 L 19.387 23.568 L 18.811 40.058 Z M 99.324 81.317 L 87.614 94.322 L 99.876 105.362 L 111.586 92.357 L 99.324 81.317 Z M 64.935 62.444 L 56.719 77.896 L 71.288 85.642 L 79.503 70.191 L 64.935 62.444 Z M 112.556 65.577 L 101.075 78.785 L 113.528 89.609 L 125.009 76.402 L 112.556 65.577 Z" vector-effect="non-scaling-stroke"/></g></svg>