<svg width="127.164mm" height="107.48mm" viewBox="0 0 127.164 107.48" xmlns="http://www.w3.org/2000/svg"><g id="svgGroup" stroke-linecap="round" fill-rule="evenodd" font-size="9pt" stroke="#000" stroke-width="0.25mm" fill="none" style="stroke:#000;stroke-width:0.25mm;fill:none"><path d="M 55.844 79.475 L 2.334 67.3 A 3 3 0 0 1 0 64.375 L 0 15.945 A 3 3 0 0 1 2.069 13.093 L 41.731 0.148 A 3 3 0 0 1 42.871 0.007 L 60.029 1.207 A 3 3 0 0 1 60.452 1.267 L 118.343 13.748 A 3 3 0 0 1 120.695 16.982 L 115.828 65.2 A 3 3 0 0 0 116.85 67.77 L 126.127 75.801 A 3 3 0 0 1 126.429 80.037 L 103.481 106.448 A 3 3 0 0 1 99.341 106.821 L 87.926 97.677 A 3 3 0 0 0 87.537 97.413 L 56.666 79.795 A 3 3 0 0 0 55.844 79.475 Z" vector-effect="non-scaling-stroke"/></g></svg>