<svg width="125.234mm" height="118.666mm" viewBox="0 0 125.234 118.666" xmlns="http://www.w3.org/2000/svg"><g id="svgGroup" stroke-linecap="round" fill-rule="evenodd" font-size="9pt" stroke="#000" stroke-width="0.25mm" fill="none" style="stroke:#000;stroke-width:0.25mm;fill:none"><path d="M 49.248 77.201 L 2.378 67.272 A 3 3 0 0 1 0 64.338 L 0 15.945 A 3 3 0 0 1 2.069 13.093 L 41.731 0.148 A 3 3 0 0 1 42.871 0.007 L 59.935 1.201 A 3 3 0 0 1 60.541 1.306 L 95.658 11.222 A 3 3 0 0 1 97.826 14.423 L 92.808 62.169 A 3 3 0 0 0 93.708 64.641 L 105.274 75.802 A 3 3 0 0 1 105.548 76.106 L 117.829 91.71 A 3 3 0 0 1 118.212 92.345 L 124.974 107.534 A 3 3 0 0 1 123.454 111.495 L 108.491 118.157 A 3 3 0 0 1 107.303 118.416 L 83.726 118.665 A 3 3 0 0 1 81.066 117.113 L 74.042 104.362 A 3 3 0 0 0 73.658 103.818 L 50.87 78.145 A 3 3 0 0 0 49.248 77.201 Z" vector-effect="non-scaling-stroke"/></g></svg>