0
SECTION
2
HEADER
9
$INSUNITS
70
4
0
ENDSEC
0
SECTION
2
TABLES
0
TABLE
2
LTYPE
0
LTYPE
72
65
70
64
2
CONTINUOUS
3
______
73
0
40
0
0
ENDTAB
0
TABLE
2
LAYER
0
ENDTAB
0
ENDSEC
0
SECTION
2
ENTITIES
0
LINE
8
0
10
39.2482322
20
-12.9328211
11
-7.6217272
21
-3.003817
0
LINE
8
0
10
-10
20
-0.0689481
11
-10
21
48.3234251
0
LINE
8
0
10
-7.9308523
20
51.1753567
11
31.7305897
21
64.1206001
0
LINE
8
0
10
32.8707115
20
64.2613606
11
49.9346407
21
63.0681344
0
LINE
8
0
10
50.5406242
20
62.9625451
11
85.6580051
21
53.0461834
0
LINE
8
0
10
87.8263178
20
49.845495
11
82.8080569
21
2.0999329
0
LINE
8
0
10
83.7083439
20
-0.3723444
11
95.2738224
21
-11.5337878
0
LINE
8
0
10
95.5480183
20
-11.8371321
11
107.8286185
21
-27.4413266
0
LINE
8
0
10
108.2117804
20
-28.0764642
11
114.974286
21
-43.2653007
0
LINE
8
0
10
113.4538594
20
-47.2261469
11
98.4909897
21
-53.8880456
0
LINE
8
0
10
97.3025218
20
-54.1472413
11
73.7257399
21
-54.3967108
0
LINE
8
0
10
71.0663495
20
-52.8444502
11
64.0419183
21
-40.0936218
0
LINE
8
0
10
63.6579347
20
-39.5497194
11
40.8701698
21
-13.8762162
0
ARC
8
0
10
-7
20
-0.0689481
40
3
50
180
51
258.0392011
0
ARC
8
0
10
-7
20
48.3234251
40
3
50
108.0763521
51
180
0
ARC
8
0
10
32.661442
20
61.2686685
40
3
50
85.9999983
51
108.0763521
0
ARC
8
0
10
49.7253712
20
60.0754423
40
3
50
74.2315119
51
85.9999983
0
ARC
8
0
10
84.8427521
20
50.1590805
40
3
50
353.9999979
51
74.2315119
0
ARC
8
0
10
85.7916225
20
1.7863474
40
3
50
173.9999979
51
226.0184883
0
ARC
8
0
10
93.1905438
20
-13.6924795
40
3
50
38.2029699
51
46.0184883
0
ARC
8
0
10
105.471144
20
-29.296674
40
3
50
23.9999968
51
38.2029699
0
ARC
8
0
10
112.2336496
20
-44.4855104
40
3
50
293.9999968
51
23.9999968
0
ARC
8
0
10
97.27078
20
-51.1474092
40
3
50
270.6062351
51
293.9999968
0
ARC
8
0
10
73.6939981
20
-51.3968787
40
3
50
208.8503671
51
270.6062351
0
ARC
8
0
10
61.4142698
20
-41.5411932
40
3
50
28.8503671
51
41.5922148
0
ARC
8
0
10
38.6265049
20
-15.86769
40
3
50
41.5922148
51
78.0392011
0
LINE
8
0
10
-7.5
20
-0.5
11
7.5
21
-0.5
0
LINE
8
0
10
7.5
20
-0.5
11
7.5
21
14.5
0
LINE
8
0
10
7.5
20
14.5
11
-7.5
21
14.5
0
LINE
8
0
10
-7.5
20
14.5
11
-7.5
21
-0.5
0
LINE
8
0
10
-7.5
20
16.5
11
7.5
21
16.5
0
LINE
8
0
10
7.5
20
16.5
11
7.5
21
31.5
0
LINE
8
0
10
7.5
20
31.5
11
-7.5
21
31.5
0
LINE
8
0
10
-7.5
20
31.5
11
-7.5
21
16.5
0
LINE
8
0
10
-7.5
20
33.5
11
7.5
21
33.5
0
LINE
8
0
10
7.5
20
33.5
11
7.5
21
48.5
0
LINE
8
0
10
7.5
20
48.5
11
-7.5
21
48.5
0
LINE
8
0
10
-7.5
20
48.5
11
-7.5
21
33.5
0
LINE
8
0
10
10.7428226
20
6.766315
11
25.733685
21
6.2428226
0
LINE
8
0
10
25.733685
20
6.2428226
11
26.2571774
21
21.233685
0
LINE
8
0
10
26.2571774
20
21.233685
11
11.266315
21
21.7571774
0
LINE
8
0
10
11.266315
20
21.7571774
11
10.7428226
21
6.766315
0
LINE
8
0
10
11.336114
20
23.7559591
11
26.3269764
21
23.2324667
0
LINE
8
0
10
26.3269764
20
23.2324667
11
26.8504688
21
38.2233291
0
LINE
8
0
10
26.8504688
20
38.2233291
11
11.8596064
21
38.7468215
0
LINE
8
0
10
11.8596064
20
38.7468215
11
11.336114
21
23.7559591
0
LINE
8
0
10
11.9294054
20
40.7456032
11
26.9202678
21
40.2221108
0
LINE
8
0
10
26.9202678
20
40.2221108
11
27.4437602
21
55.2129732
0
LINE
8
0
10
27.4437602
20
55.2129732
11
12.4528978
21
55.7364656
0
LINE
8
0
10
12.4528978
20
55.7364656
11
11.9294054
21
40.7456032
0
LINE
8
0
10
29.2281229
20
13.3915383
11
44.1915836
21
12.3451912
0
LINE
8
0
10
44.1915836
20
12.3451912
11
45.2379307
21
27.3086519
0
LINE
8
0
10
45.2379307
20
27.3086519
11
30.27447
21
28.354999
0
LINE
8
0
10
30.27447
20
28.354999
11
29.2281229
21
13.3915383
0
LINE
8
0
10
30.413983
20
30.3501272
11
45.3774437
21
29.3037801
0
LINE
8
0
10
45.3774437
20
29.3037801
11
46.4237908
21
44.2672408
0
LINE
8
0
10
46.4237908
20
44.2672408
11
31.4603301
21
45.3135879
0
LINE
8
0
10
31.4603301
20
45.3135879
11
30.413983
21
30.3501272
0
LINE
8
0
10
31.5998431
20
47.3087161
11
46.5633038
21
46.262369
0
LINE
8
0
10
46.5633038
20
46.262369
11
47.6096509
21
61.2258297
0
LINE
8
0
10
47.6096509
20
61.2258297
11
32.6461902
21
62.2721768
0
LINE
8
0
10
32.6461902
20
62.2721768
11
31.5998431
21
47.3087161
0
LINE
8
0
10
46.9567887
20
5.4017013
11
61.8746171
21
3.8337743
0
LINE
8
0
10
61.8746171
20
3.8337743
11
63.4425441
21
18.7516027
0
LINE
8
0
10
63.4425441
20
18.7516027
11
48.5247157
21
20.3195297
0
LINE
8
0
10
48.5247157
20
20.3195297
11
46.9567887
21
5.4017013
0
LINE
8
0
10
48.7337726
20
22.3085735
11
63.651601
21
20.7406465
0
LINE
8
0
10
63.651601
20
20.7406465
11
65.219528
21
35.6584749
0
LINE
8
0
10
65.219528
20
35.6584749
11
50.3016996
21
37.2264019
0
LINE
8
0
10
50.3016996
20
37.2264019
11
48.7337726
21
22.3085735
0
LINE
8
0
10
50.5107565
20
39.2154457
11
65.4285849
21
37.6475187
0
LINE
8
0
10
65.4285849
20
37.6475187
11
66.9965119
21
52.5653471
0
LINE
8
0
10
66.9965119
20
52.5653471
11
52.0786835
21
54.1332741
0
LINE
8
0
10
52.0786835
20
54.1332741
11
50.5107565
21
39.2154457
0
LINE
8
0
10
65.3554437
20
3.4679247
11
80.2732721
21
1.8999977
0
LINE
8
0
10
80.2732721
20
1.8999977
11
81.8411991
21
16.8178261
0
LINE
8
0
10
81.8411991
20
16.8178261
11
66.9233707
21
18.3857531
0
LINE
8
0
10
66.9233707
20
18.3857531
11
65.3554437
21
3.4679247
0
LINE
8
0
10
67.1324276
20
20.3747969
11
82.050256
21
18.8068699
0
LINE
8
0
10
82.050256
20
18.8068699
11
83.618183
21
33.7246983
0
LINE
8
0
10
83.618183
20
33.7246983
11
68.7003546
21
35.2926253
0
LINE
8
0
10
68.7003546
20
35.2926253
11
67.1324276
21
20.3747969
0
LINE
8
0
10
68.9094115
20
37.2816691
11
83.8272399
21
35.7137421
0
LINE
8
0
10
83.8272399
20
35.7137421
11
85.3951669
21
50.6315705
0
LINE
8
0
10
85.3951669
20
50.6315705
11
70.4773385
21
52.1994975
0
LINE
8
0
10
70.4773385
20
52.1994975
11
68.9094115
21
37.2816691
0
LINE
8
0
10
79.7771687
20
-1.2311083
11
68.9870717
21
-11.6509839
0
LINE
8
0
10
68.9870717
20
-11.6509839
11
79.4069473
21
-22.4410809
0
LINE
8
0
10
79.4069473
20
-22.4410809
11
90.1970443
21
-12.0212053
0
LINE
8
0
10
90.1970443
20
-12.0212053
11
79.7771687
21
-1.2311083
0
LINE
8
0
10
94.4670729
20
-14.7321523
11
82.0315093
21
-23.1200459
0
LINE
8
0
10
82.0315093
20
-23.1200459
11
90.4194029
21
-35.5556095
0
LINE
8
0
10
90.4194029
20
-35.5556095
11
102.8549665
21
-27.1677159
0
LINE
8
0
10
102.8549665
20
-27.1677159
11
94.4670729
21
-14.7321523
0
LINE
8
0
10
106.5893727
20
-30.5789602
11
92.8861908
21
-36.6800099
0
LINE
8
0
10
92.8861908
20
-36.6800099
11
98.9872405
21
-50.3831918
0
LINE
8
0
10
98.9872405
20
-50.3831918
11
112.6904224
21
-44.2821421
0
LINE
8
0
10
112.6904224
20
-44.2821421
11
106.5893727
21
-30.5789602
0
LINE
8
0
10
54.1922648
20
-2.4196752
11
43.4021678
21
-12.8395508
0
LINE
8
0
10
43.4021678
20
-12.8395508
11
53.8220434
21
-23.6296478
0
LINE
8
0
10
53.8220434
20
-23.6296478
11
64.6121404
21
-13.2097722
0
LINE
8
0
10
64.6121404
20
-13.2097722
11
54.1922648
21
-2.4196752
0
LINE
8
0
10
68.882169
20
-15.9207192
11
56.4466054
21
-24.3086128
0
LINE
8
0
10
56.4466054
20
-24.3086128
11
64.834499
21
-36.7441764
0
LINE
8
0
10
64.834499
20
-36.7441764
11
77.2700626
21
-28.3562828
0
LINE
8
0
10
77.2700626
20
-28.3562828
11
68.882169
21
-15.9207192
0
LINE
8
0
10
81.0044688
20
-31.7675271
11
67.3012869
21
-37.8685768
0
LINE
8
0
10
67.3012869
20
-37.8685768
11
73.4023366
21
-51.5717587
0
LINE
8
0
10
73.4023366
20
-51.5717587
11
87.1055185
21
-45.470709
0
LINE
8
0
10
87.1055185
20
-45.470709
11
81.0044688
21
-31.7675271
0
ENDSEC
0
EOF