<svg width="120.19mm" height="113.844mm" viewBox="0 0 120.19 113.844" xmlns="http://www.w3.org/2000/svg"><g id="svgGroup" stroke-linecap="round" fill-rule="evenodd" font-size="9pt" stroke="#000" stroke-width="0.25mm" fill="none" style="stroke:#000;stroke-width:0.25mm;fill:none"><path d="M 114.089 92.851 L 100.386 98.952 L 106.487 112.655 L 120.19 106.554 L 114.089 92.851 Z M 88.504 94.04 L 74.801 100.141 L 80.902 113.844 L 94.606 107.743 L 88.504 94.04 Z M 101.967 77.004 L 89.532 85.392 L 97.919 97.828 L 110.355 89.44 L 101.967 77.004 Z M 76.382 78.193 L 63.947 86.581 L 72.334 99.016 L 84.77 90.628 L 76.382 78.193 Z M 87.277 63.503 L 76.487 73.923 L 86.907 84.713 L 97.697 74.293 L 87.277 63.503 Z M 61.692 64.692 L 50.902 75.112 L 61.322 85.902 L 72.112 75.482 L 61.692 64.692 Z M 0 62.772 L 15 62.772 L 15 47.772 L 0 47.772 L 0 62.772 Z M 0 45.772 L 15 45.772 L 15 30.772 L 0 30.772 L 0 45.772 Z M 0 28.772 L 15 28.772 L 15 13.772 L 0 13.772 L 0 28.772 Z M 19.429 21.527 L 34.42 22.05 L 34.944 7.059 L 19.953 6.536 L 19.429 21.527 Z M 18.243 55.506 L 33.234 56.029 L 33.757 41.038 L 18.766 40.515 L 18.243 55.506 Z M 18.836 38.516 L 33.827 39.04 L 34.35 24.049 L 19.36 23.525 L 18.836 38.516 Z M 54.457 56.87 L 69.375 58.438 L 70.943 43.521 L 56.025 41.953 L 54.457 56.87 Z M 58.011 23.057 L 72.929 24.625 L 74.497 9.707 L 59.579 8.139 L 58.011 23.057 Z M 56.234 39.964 L 71.152 41.532 L 72.72 26.614 L 57.802 25.046 L 56.234 39.964 Z M 72.855 58.804 L 87.773 60.372 L 89.341 45.454 L 74.423 43.886 L 72.855 58.804 Z M 74.632 41.897 L 89.55 43.465 L 91.118 28.547 L 76.2 26.98 L 74.632 41.897 Z M 76.409 24.991 L 91.327 26.558 L 92.895 11.641 L 77.977 10.073 L 76.409 24.991 Z M 37.914 31.922 L 52.877 32.968 L 53.924 18.005 L 38.96 16.959 L 37.914 31.922 Z M 36.728 48.881 L 51.692 49.927 L 52.738 34.964 L 37.774 33.917 L 36.728 48.881 Z M 39.1 14.963 L 54.063 16.01 L 55.11 1.046 L 40.146 0 L 39.1 14.963 Z" vector-effect="non-scaling-stroke"/></g></svg>