<svg width="122.373mm" height="103.096mm" viewBox="0 0 122.373 103.096" xmlns="http://www.w3.org/2000/svg"><g id="svgGroup" stroke-linecap="round" fill-rule="evenodd" font-size="9pt" stroke="#000" stroke-width="0.25mm" fill="none" style="stroke:#000;stroke-width:0.25mm;fill:none"><path d="M 111.052 66.177 L 101.211 77.498 L 112.532 87.339 L 122.373 76.018 L 111.052 66.177 Z M 63.76 63.065 L 56.718 76.309 L 69.962 83.351 L 77.004 70.107 L 63.76 63.065 Z M 81.354 71.448 L 72.75 83.735 L 85.038 92.338 L 93.641 80.051 L 81.354 71.448 Z M 0 62.772 L 15 62.772 L 15 47.772 L 0 47.772 L 0 62.772 Z M 0 45.772 L 15 45.772 L 15 30.772 L 0 30.772 L 0 45.772 Z M 0 28.772 L 15 28.772 L 15 13.772 L 0 13.772 L 0 28.772 Z M 19.429 21.527 L 34.42 22.05 L 34.944 7.059 L 19.953 6.536 L 19.429 21.527 Z M 18.243 55.506 L 33.234 56.029 L 33.757 41.038 L 18.766 40.515 L 18.243 55.506 Z M 18.836 38.516 L 33.827 39.04 L 34.35 24.049 L 19.36 23.525 L 18.836 38.516 Z M 93.369 56.938 L 85.643 69.796 L 98.501 77.521 L 106.226 64.664 L 93.369 56.938 Z M 54.457 56.87 L 69.375 58.438 L 70.943 43.521 L 56.025 41.953 L 54.457 56.87 Z M 58.011 23.057 L 72.929 24.625 L 74.497 9.707 L 59.579 8.139 L 58.011 23.057 Z M 56.234 39.964 L 71.152 41.532 L 72.72 26.614 L 57.802 25.046 L 56.234 39.964 Z M 72.855 58.804 L 87.773 60.372 L 89.341 45.454 L 74.423 43.886 L 72.855 58.804 Z M 74.632 41.897 L 89.55 43.465 L 91.118 28.547 L 76.2 26.98 L 74.632 41.897 Z M 76.409 24.991 L 91.327 26.558 L 92.895 11.641 L 77.977 10.073 L 76.409 24.991 Z M 37.914 31.922 L 52.877 32.968 L 53.924 18.005 L 38.96 16.959 L 37.914 31.922 Z M 36.728 48.881 L 51.692 49.927 L 52.738 34.964 L 37.774 33.917 L 36.728 48.881 Z M 39.1 14.963 L 54.063 16.01 L 55.11 1.046 L 40.146 0 L 39.1 14.963 Z M 97.795 81.912 L 87.758 93.059 L 98.905 103.096 L 108.942 91.949 L 97.795 81.912 Z" vector-effect="non-scaling-stroke"/></g></svg>