0
SECTION
2
HEADER
9
$INSUNITS
70
4
0
ENDSEC
0
SECTION
2
TABLES
0
TABLE
2
LTYPE
0
LTYPE
72
65
70
64
2
CONTINUOUS
3
______
73
0
40
0
0
ENDTAB
0
TABLE
2
LAYER
0
ENDTAB
0
ENDSEC
0
SECTION
2
ENTITIES
0
LINE
8
0
10
45.8441082
20
-15.2062716
11
-7.6655821
21
-3.0311527
0
LINE
8
0
10
-10
20
-0.1059176
11
-10
21
48.3234251
0
LINE
8
0
10
-7.9308523
20
51.1753567
11
31.7305897
21
64.1206001
0
LINE
8
0
10
32.8707115
20
64.2613606
11
50.0294312
21
63.061506
0
LINE
8
0
10
50.4524282
20
63.0014302
11
108.3426098
21
50.5204198
0
LINE
8
0
10
110.6951774
20
47.2865306
11
105.828289
21
-0.9317442
0
LINE
8
0
10
106.8497055
20
-3.5012746
11
116.1274506
21
-11.532148
0
LINE
8
0
10
116.42862
20
-15.7680553
11
93.4808071
21
-42.1789116
0
LINE
8
0
10
89.3406094
20
-42.5526467
11
77.9259145
21
-33.4086901
0
LINE
8
0
10
77.5372922
20
-33.14453
11
46.6655146
21
-15.5259616
0
ARC
8
0
10
-7
20
-0.1059176
40
3
50
180
51
257.181656
0
ARC
8
0
10
-7
20
48.3234251
40
3
50
108.0763521
51
180
0
ARC
8
0
10
32.661442
20
61.2686685
40
3
50
85.9999983
51
108.0763521
0
ARC
8
0
10
49.8201617
20
60.0688139
40
3
50
77.8333698
51
85.9999983
0
ARC
8
0
10
107.7103433
20
47.5878035
40
3
50
354.2363959
51
77.8333698
0
ARC
8
0
10
108.8131231
20
-1.2330171
40
3
50
174.2363959
51
229.1203356
0
ARC
8
0
10
114.1640331
20
-13.8004054
40
3
50
319.0133395
51
49.1203356
0
ARC
8
0
10
91.2162202
20
-40.2112617
40
3
50
231.3028674
51
319.0133395
0
ARC
8
0
10
76.0503038
20
-35.7500751
40
3
50
51.3028674
51
60.286533
0
ARC
8
0
10
45.1785262
20
-18.1315067
40
3
50
60.286533
51
77.181656
0
LINE
8
0
10
-7.5
20
-0.5
11
7.5
21
-0.5
0
LINE
8
0
10
7.5
20
-0.5
11
7.5
21
14.5
0
LINE
8
0
10
7.5
20
14.5
11
-7.5
21
14.5
0
LINE
8
0
10
-7.5
20
14.5
11
-7.5
21
-0.5
0
LINE
8
0
10
-7.5
20
16.5
11
7.5
21
16.5
0
LINE
8
0
10
7.5
20
16.5
11
7.5
21
31.5
0
LINE
8
0
10
7.5
20
31.5
11
-7.5
21
31.5
0
LINE
8
0
10
-7.5
20
31.5
11
-7.5
21
16.5
0
LINE
8
0
10
-7.5
20
33.5
11
7.5
21
33.5
0
LINE
8
0
10
7.5
20
33.5
11
7.5
21
48.5
0
LINE
8
0
10
7.5
20
48.5
11
-7.5
21
48.5
0
LINE
8
0
10
-7.5
20
48.5
11
-7.5
21
33.5
0
LINE
8
0
10
10.7428226
20
6.766315
11
25.733685
21
6.2428226
0
LINE
8
0
10
25.733685
20
6.2428226
11
26.2571774
21
21.233685
0
LINE
8
0
10
26.2571774
20
21.233685
11
11.266315
21
21.7571774
0
LINE
8
0
10
11.266315
20
21.7571774
11
10.7428226
21
6.766315
0
LINE
8
0
10
11.336114
20
23.7559591
11
26.3269764
21
23.2324667
0
LINE
8
0
10
26.3269764
20
23.2324667
11
26.8504688
21
38.2233291
0
LINE
8
0
10
26.8504688
20
38.2233291
11
11.8596064
21
38.7468215
0
LINE
8
0
10
11.8596064
20
38.7468215
11
11.336114
21
23.7559591
0
LINE
8
0
10
11.9294054
20
40.7456032
11
26.9202678
21
40.2221108
0
LINE
8
0
10
26.9202678
20
40.2221108
11
27.4437602
21
55.2129732
0
LINE
8
0
10
27.4437602
20
55.2129732
11
12.4528978
21
55.7364656
0
LINE
8
0
10
12.4528978
20
55.7364656
11
11.9294054
21
40.7456032
0
LINE
8
0
10
29.2281229
20
13.3915383
11
44.1915836
21
12.3451912
0
LINE
8
0
10
44.1915836
20
12.3451912
11
45.2379307
21
27.3086519
0
LINE
8
0
10
45.2379307
20
27.3086519
11
30.27447
21
28.354999
0
LINE
8
0
10
30.27447
20
28.354999
11
29.2281229
21
13.3915383
0
LINE
8
0
10
30.413983
20
30.3501272
11
45.3774437
21
29.3037801
0
LINE
8
0
10
45.3774437
20
29.3037801
11
46.4237908
21
44.2672408
0
LINE
8
0
10
46.4237908
20
44.2672408
11
31.4603301
21
45.3135879
0
LINE
8
0
10
31.4603301
20
45.3135879
11
30.413983
21
30.3501272
0
LINE
8
0
10
31.5998431
20
47.3087161
11
46.5633038
21
46.262369
0
LINE
8
0
10
46.5633038
20
46.262369
11
47.6096509
21
61.2258297
0
LINE
8
0
10
47.6096509
20
61.2258297
11
32.6461902
21
62.2721768
0
LINE
8
0
10
32.6461902
20
62.2721768
11
31.5998431
21
47.3087161
0
LINE
8
0
10
46.9567887
20
5.4017013
11
61.8746171
21
3.8337743
0
LINE
8
0
10
61.8746171
20
3.8337743
11
63.4425441
21
18.7516027
0
LINE
8
0
10
63.4425441
20
18.7516027
11
48.5247157
21
20.3195297
0
LINE
8
0
10
48.5247157
20
20.3195297
11
46.9567887
21
5.4017013
0
LINE
8
0
10
48.7337726
20
22.3085735
11
63.651601
21
20.7406465
0
LINE
8
0
10
63.651601
20
20.7406465
11
65.219528
21
35.6584749
0
LINE
8
0
10
65.219528
20
35.6584749
11
50.3016996
21
37.2264019
0
LINE
8
0
10
50.3016996
20
37.2264019
11
48.7337726
21
22.3085735
0
LINE
8
0
10
50.5107565
20
39.2154457
11
65.4285849
21
37.6475187
0
LINE
8
0
10
65.4285849
20
37.6475187
11
66.9965119
21
52.5653471
0
LINE
8
0
10
66.9965119
20
52.5653471
11
52.0786835
21
54.1332741
0
LINE
8
0
10
52.0786835
20
54.1332741
11
50.5107565
21
39.2154457
0
LINE
8
0
10
65.3554437
20
3.4679247
11
80.2732721
21
1.8999977
0
LINE
8
0
10
80.2732721
20
1.8999977
11
81.8411991
21
16.8178261
0
LINE
8
0
10
81.8411991
20
16.8178261
11
66.9233707
21
18.3857531
0
LINE
8
0
10
66.9233707
20
18.3857531
11
65.3554437
21
3.4679247
0
LINE
8
0
10
67.1324276
20
20.3747969
11
82.050256
21
18.8068699
0
LINE
8
0
10
82.050256
20
18.8068699
11
83.618183
21
33.7246983
0
LINE
8
0
10
83.618183
20
33.7246983
11
68.7003546
21
35.2926253
0
LINE
8
0
10
68.7003546
20
35.2926253
11
67.1324276
21
20.3747969
0
LINE
8
0
10
68.9094115
20
37.2816691
11
83.8272399
21
35.7137421
0
LINE
8
0
10
83.8272399
20
35.7137421
11
85.3951669
21
50.6315705
0
LINE
8
0
10
85.3951669
20
50.6315705
11
70.4773385
21
52.1994975
0
LINE
8
0
10
70.4773385
20
52.1994975
11
68.9094115
21
37.2816691
0
LINE
8
0
10
85.8686973
20
5.3340037
11
78.1431262
21
-7.5235058
0
LINE
8
0
10
78.1431262
20
-7.5235058
11
91.0006357
21
-15.2490769
0
LINE
8
0
10
91.0006357
20
-15.2490769
11
98.7262068
21
-2.3915674
0
LINE
8
0
10
98.7262068
20
-2.3915674
11
85.8686973
21
5.3340037
0
LINE
8
0
10
103.5523825
20
-3.9049764
11
93.711497
21
-15.2256201
0
LINE
8
0
10
93.711497
20
-15.2256201
11
105.0321407
21
-25.0665056
0
LINE
8
0
10
105.0321407
20
-25.0665056
11
114.8730262
21
-13.7458619
0
LINE
8
0
10
114.8730262
20
-13.7458619
11
103.5523825
21
-3.9049764
0
LINE
8
0
10
56.2601984
20
-0.792481
11
49.2181249
21
-14.0366949
0
LINE
8
0
10
49.2181249
20
-14.0366949
11
62.4623388
21
-21.0787684
0
LINE
8
0
10
62.4623388
20
-21.0787684
11
69.5044123
21
-7.8345545
0
LINE
8
0
10
69.5044123
20
-7.8345545
11
56.2601984
21
-0.792481
0
LINE
8
0
10
73.853982
20
-9.175385
11
65.2503355
21
-21.4626657
0
LINE
8
0
10
65.2503355
20
-21.4626657
11
77.5376162
21
-30.0663122
0
LINE
8
0
10
77.5376162
20
-30.0663122
11
86.1412627
21
-17.7790315
0
LINE
8
0
10
86.1412627
20
-17.7790315
11
73.853982
21
-9.175385
0
LINE
8
0
10
90.2950053
20
-19.639947
11
80.2580462
21
-30.7871193
0
LINE
8
0
10
80.2580462
20
-30.7871193
11
91.4052185
21
-40.8240784
0
LINE
8
0
10
91.4052185
20
-40.8240784
11
101.4421776
21
-29.6769061
0
LINE
8
0
10
101.4421776
20
-29.6769061
11
90.2950053
21
-19.639947
0
ENDSEC
0
EOF