<svg width="127.164mm" height="107.48mm" viewBox="0 0 127.164 107.48" xmlns="http://www.w3.org/2000/svg"><g id="svgGroup" stroke-linecap="round" fill-rule="evenodd" font-size="9pt" stroke="#000" stroke-width="0.25mm" fill="none" style="stroke:#000;stroke-width:0.25mm;fill:none"><path d="M 55.844 79.475 L 2.334 67.3 A 3 3 0 0 1 0 64.375 L 0 15.945 A 3 3 0 0 1 2.069 13.093 L 41.731 0.148 A 3 3 0 0 1 42.871 0.007 L 60.029 1.207 A 3 3 0 0 1 60.452 1.267 L 118.343 13.748 A 3 3 0 0 1 120.695 16.982 L 115.828 65.2 A 3 3 0 0 0 116.85 67.77 L 126.127 75.801 A 3 3 0 0 1 126.429 80.037 L 103.481 106.448 A 3 3 0 0 1 99.341 106.821 L 87.926 97.677 A 3 3 0 0 0 87.537 97.413 L 56.666 79.795 A 3 3 0 0 0 55.844 79.475 Z M 113.552 68.174 L 103.711 79.494 L 115.032 89.335 L 124.873 78.015 L 113.552 68.174 Z M 66.26 65.061 L 59.218 78.305 L 72.462 85.347 L 79.504 72.103 L 66.26 65.061 Z M 83.854 73.444 L 75.25 85.731 L 87.538 94.335 L 96.141 82.048 L 83.854 73.444 Z M 2.5 64.769 L 17.5 64.769 L 17.5 49.769 L 2.5 49.769 L 2.5 64.769 Z M 2.5 47.769 L 17.5 47.769 L 17.5 32.769 L 2.5 32.769 L 2.5 47.769 Z M 2.5 30.769 L 17.5 30.769 L 17.5 15.769 L 2.5 15.769 L 2.5 30.769 Z M 21.929 23.523 L 36.92 24.047 L 37.444 9.056 L 22.453 8.532 L 21.929 23.523 Z M 20.743 57.502 L 35.734 58.026 L 36.257 43.035 L 21.266 42.511 L 20.743 57.502 Z M 21.336 40.513 L 36.327 41.036 L 36.85 26.045 L 21.86 25.522 L 21.336 40.513 Z M 95.869 58.935 L 88.143 71.792 L 101.001 79.518 L 108.726 66.66 L 95.869 58.935 Z M 56.957 58.867 L 71.875 60.435 L 73.443 45.517 L 58.525 43.949 L 56.957 58.867 Z M 60.511 25.053 L 75.429 26.621 L 76.997 11.703 L 62.079 10.135 L 60.511 25.053 Z M 58.734 41.96 L 73.652 43.528 L 75.22 28.61 L 60.302 27.042 L 58.734 41.96 Z M 75.355 60.801 L 90.273 62.369 L 91.841 47.451 L 76.923 45.883 L 75.355 60.801 Z M 77.132 43.894 L 92.05 45.462 L 93.618 30.544 L 78.7 28.976 L 77.132 43.894 Z M 78.909 26.987 L 93.827 28.555 L 95.395 13.637 L 80.477 12.069 L 78.909 26.987 Z M 40.414 33.919 L 55.377 34.965 L 56.424 20.001 L 41.46 18.955 L 40.414 33.919 Z M 39.228 50.877 L 54.192 51.923 L 55.238 36.96 L 40.274 35.914 L 39.228 50.877 Z M 41.6 16.96 L 56.563 18.006 L 57.61 3.043 L 42.646 1.996 L 41.6 16.96 Z M 100.295 83.909 L 90.258 95.056 L 101.405 105.093 L 111.442 93.946 L 100.295 83.909 Z" vector-effect="non-scaling-stroke"/></g></svg>