<svg width="125.234mm" height="118.666mm" viewBox="0 0 125.234 118.666" xmlns="http://www.w3.org/2000/svg"><g id="svgGroup" stroke-linecap="round" fill-rule="evenodd" font-size="9pt" stroke="#000" stroke-width="0.25mm" fill="none" style="stroke:#000;stroke-width:0.25mm;fill:none"><path d="M 49.248 77.201 L 2.378 67.272 A 3 3 0 0 1 0 64.338 L 0 15.945 A 3 3 0 0 1 2.069 13.093 L 41.731 0.148 A 3 3 0 0 1 42.871 0.007 L 59.935 1.201 A 3 3 0 0 1 60.541 1.306 L 95.658 11.222 A 3 3 0 0 1 97.826 14.423 L 92.808 62.169 A 3 3 0 0 0 93.708 64.641 L 105.274 75.802 A 3 3 0 0 1 105.548 76.106 L 117.829 91.71 A 3 3 0 0 1 118.212 92.345 L 124.974 107.534 A 3 3 0 0 1 123.454 111.495 L 108.491 118.157 A 3 3 0 0 1 107.303 118.416 L 83.726 118.665 A 3 3 0 0 1 81.066 117.113 L 74.042 104.362 A 3 3 0 0 0 73.658 103.818 L 50.87 78.145 A 3 3 0 0 0 49.248 77.201 Z M 116.589 94.848 L 102.886 100.949 L 108.987 114.652 L 122.69 108.551 L 116.589 94.848 Z M 91.004 96.036 L 77.301 102.137 L 83.402 115.84 L 97.106 109.739 L 91.004 96.036 Z M 104.467 79.001 L 92.032 87.389 L 100.419 99.824 L 112.855 91.436 L 104.467 79.001 Z M 78.882 80.189 L 66.447 88.577 L 74.834 101.013 L 87.27 92.625 L 78.882 80.189 Z M 89.777 65.5 L 78.987 75.92 L 89.407 86.71 L 100.197 76.29 L 89.777 65.5 Z M 64.192 66.688 L 53.402 77.108 L 63.822 87.898 L 74.612 77.478 L 64.192 66.688 Z M 2.5 64.769 L 17.5 64.769 L 17.5 49.769 L 2.5 49.769 L 2.5 64.769 Z M 2.5 47.769 L 17.5 47.769 L 17.5 32.769 L 2.5 32.769 L 2.5 47.769 Z M 2.5 30.769 L 17.5 30.769 L 17.5 15.769 L 2.5 15.769 L 2.5 30.769 Z M 21.929 23.523 L 36.92 24.047 L 37.444 9.056 L 22.453 8.532 L 21.929 23.523 Z M 20.743 57.502 L 35.734 58.026 L 36.257 43.035 L 21.266 42.511 L 20.743 57.502 Z M 21.336 40.513 L 36.327 41.036 L 36.85 26.045 L 21.86 25.522 L 21.336 40.513 Z M 56.957 58.867 L 71.875 60.435 L 73.443 45.517 L 58.525 43.949 L 56.957 58.867 Z M 60.511 25.053 L 75.429 26.621 L 76.997 11.703 L 62.079 10.135 L 60.511 25.053 Z M 58.734 41.96 L 73.652 43.528 L 75.22 28.61 L 60.302 27.042 L 58.734 41.96 Z M 75.355 60.801 L 90.273 62.369 L 91.841 47.451 L 76.923 45.883 L 75.355 60.801 Z M 77.132 43.894 L 92.05 45.462 L 93.618 30.544 L 78.7 28.976 L 77.132 43.894 Z M 78.909 26.987 L 93.827 28.555 L 95.395 13.637 L 80.477 12.069 L 78.909 26.987 Z M 40.414 33.919 L 55.377 34.965 L 56.424 20.001 L 41.46 18.955 L 40.414 33.919 Z M 39.228 50.877 L 54.192 51.923 L 55.238 36.96 L 40.274 35.914 L 39.228 50.877 Z M 41.6 16.96 L 56.563 18.006 L 57.61 3.043 L 42.646 1.996 L 41.6 16.96 Z" vector-effect="non-scaling-stroke"/></g></svg>