0
SECTION
2
HEADER
9
$INSUNITS
70
4
0
ENDSEC
0
SECTION
2
TABLES
0
TABLE
2
LTYPE
0
LTYPE
72
65
70
64
2
CONTINUOUS
3
______
73
0
40
0
0
ENDTAB
0
TABLE
2
LAYER
0
ENDTAB
0
ENDSEC
0
SECTION
2
ENTITIES
0
LINE
8
0
10
92.5
20
-107.5
11
107.5
21
-107.5
0
LINE
8
0
10
107.5
20
-107.5
11
107.5
21
-92.5
0
LINE
8
0
10
107.5
20
-92.5
11
92.5
21
-92.5
0
LINE
8
0
10
92.5
20
-92.5
11
92.5
21
-107.5
0
LINE
8
0
10
92.5
20
-90.5
11
107.5
21
-90.5
0
LINE
8
0
10
107.5
20
-90.5
11
107.5
21
-75.5
0
LINE
8
0
10
107.5
20
-75.5
11
92.5
21
-75.5
0
LINE
8
0
10
92.5
20
-75.5
11
92.5
21
-90.5
0
LINE
8
0
10
92.5
20
-73.5
11
107.5
21
-73.5
0
LINE
8
0
10
107.5
20
-73.5
11
107.5
21
-58.5
0
LINE
8
0
10
107.5
20
-58.5
11
92.5
21
-58.5
0
LINE
8
0
10
92.5
20
-58.5
11
92.5
21
-73.5
0
LINE
8
0
10
110.7428226
20
-100.233685
11
125.733685
21
-100.7571774
0
LINE
8
0
10
125.733685
20
-100.7571774
11
126.2571774
21
-85.766315
0
LINE
8
0
10
126.2571774
20
-85.766315
11
111.266315
21
-85.2428226
0
LINE
8
0
10
111.266315
20
-85.2428226
11
110.7428226
21
-100.233685
0
LINE
8
0
10
111.336114
20
-83.2440409
11
126.3269764
21
-83.7675333
0
LINE
8
0
10
126.3269764
20
-83.7675333
11
126.8504688
21
-68.7766709
0
LINE
8
0
10
126.8504688
20
-68.7766709
11
111.8596064
21
-68.2531785
0
LINE
8
0
10
111.8596064
20
-68.2531785
11
111.336114
21
-83.2440409
0
LINE
8
0
10
111.9294054
20
-66.2543968
11
126.9202678
21
-66.7778892
0
LINE
8
0
10
126.9202678
20
-66.7778892
11
127.4437602
21
-51.7870268
0
LINE
8
0
10
127.4437602
20
-51.7870268
11
112.4528978
21
-51.2635344
0
LINE
8
0
10
112.4528978
20
-51.2635344
11
111.9294054
21
-66.2543968
0
LINE
8
0
10
129.2281229
20
-93.6084617
11
144.1915836
21
-94.6548088
0
LINE
8
0
10
144.1915836
20
-94.6548088
11
145.2379307
21
-79.6913481
0
LINE
8
0
10
145.2379307
20
-79.6913481
11
130.27447
21
-78.645001
0
LINE
8
0
10
130.27447
20
-78.645001
11
129.2281229
21
-93.6084617
0
LINE
8
0
10
130.413983
20
-76.6498728
11
145.3774437
21
-77.6962199
0
LINE
8
0
10
145.3774437
20
-77.6962199
11
146.4237908
21
-62.7327592
0
LINE
8
0
10
146.4237908
20
-62.7327592
11
131.4603301
21
-61.6864121
0
LINE
8
0
10
131.4603301
20
-61.6864121
11
130.413983
21
-76.6498728
0
LINE
8
0
10
131.5998431
20
-59.6912839
11
146.5633038
21
-60.737631
0
LINE
8
0
10
146.5633038
20
-60.737631
11
147.6096509
21
-45.7741703
0
LINE
8
0
10
147.6096509
20
-45.7741703
11
132.6461902
21
-44.7278232
0
LINE
8
0
10
132.6461902
20
-44.7278232
11
131.5998431
21
-59.6912839
0
LINE
8
0
10
146.9567887
20
-101.5982987
11
161.8746171
21
-103.1662257
0
LINE
8
0
10
161.8746171
20
-103.1662257
11
163.4425441
21
-88.2483973
0
LINE
8
0
10
163.4425441
20
-88.2483973
11
148.5247157
21
-86.6804703
0
LINE
8
0
10
148.5247157
20
-86.6804703
11
146.9567887
21
-101.5982987
0
LINE
8
0
10
148.7337726
20
-84.6914265
11
163.651601
21
-86.2593535
0
LINE
8
0
10
163.651601
20
-86.2593535
11
165.219528
21
-71.3415251
0
LINE
8
0
10
165.219528
20
-71.3415251
11
150.3016996
21
-69.7735981
0
LINE
8
0
10
150.3016996
20
-69.7735981
11
148.7337726
21
-84.6914265
0
LINE
8
0
10
150.5107565
20
-67.7845543
11
165.4285849
21
-69.3524813
0
LINE
8
0
10
165.4285849
20
-69.3524813
11
166.9965119
21
-54.4346529
0
LINE
8
0
10
166.9965119
20
-54.4346529
11
152.0786835
21
-52.8667259
0
LINE
8
0
10
152.0786835
20
-52.8667259
11
150.5107565
21
-67.7845543
0
LINE
8
0
10
165.3554437
20
-103.5320753
11
180.2732721
21
-105.1000023
0
LINE
8
0
10
180.2732721
20
-105.1000023
11
181.8411991
21
-90.1821739
0
LINE
8
0
10
181.8411991
20
-90.1821739
11
166.9233707
21
-88.6142469
0
LINE
8
0
10
166.9233707
20
-88.6142469
11
165.3554437
21
-103.5320753
0
LINE
8
0
10
167.1324276
20
-86.6252031
11
182.050256
21
-88.1931301
0
LINE
8
0
10
182.050256
20
-88.1931301
11
183.618183
21
-73.2753017
0
LINE
8
0
10
183.618183
20
-73.2753017
11
168.7003546
21
-71.7073747
0
LINE
8
0
10
168.7003546
20
-71.7073747
11
167.1324276
21
-86.6252031
0
LINE
8
0
10
168.9094115
20
-69.7183309
11
183.8272399
21
-71.2862579
0
LINE
8
0
10
183.8272399
20
-71.2862579
11
185.3951669
21
-56.3684295
0
LINE
8
0
10
185.3951669
20
-56.3684295
11
170.4773385
21
-54.8005025
0
LINE
8
0
10
170.4773385
20
-54.8005025
11
168.9094115
21
-69.7183309
0
LINE
8
0
10
185.8686973
20
-101.6659963
11
178.1431262
21
-114.5235058
0
LINE
8
0
10
178.1431262
20
-114.5235058
11
191.0006357
21
-122.2490769
0
LINE
8
0
10
191.0006357
20
-122.2490769
11
198.7262068
21
-109.3915674
0
LINE
8
0
10
198.7262068
20
-109.3915674
11
185.8686973
21
-101.6659963
0
LINE
8
0
10
203.5523825
20
-110.9049764
11
193.711497
21
-122.2256201
0
LINE
8
0
10
193.711497
20
-122.2256201
11
205.0321407
21
-132.0665056
0
LINE
8
0
10
205.0321407
20
-132.0665056
11
214.8730262
21
-120.7458619
0
LINE
8
0
10
214.8730262
20
-120.7458619
11
203.5523825
21
-110.9049764
0
LINE
8
0
10
156.2601984
20
-107.792481
11
149.2181249
21
-121.0366949
0
LINE
8
0
10
149.2181249
20
-121.0366949
11
162.4623388
21
-128.0787684
0
LINE
8
0
10
162.4623388
20
-128.0787684
11
169.5044123
21
-114.8345545
0
LINE
8
0
10
169.5044123
20
-114.8345545
11
156.2601984
21
-107.792481
0
LINE
8
0
10
173.853982
20
-116.175385
11
165.2503355
21
-128.4626657
0
LINE
8
0
10
165.2503355
20
-128.4626657
11
177.5376162
21
-137.0663122
0
LINE
8
0
10
177.5376162
20
-137.0663122
11
186.1412627
21
-124.7790315
0
LINE
8
0
10
186.1412627
20
-124.7790315
11
173.853982
21
-116.175385
0
LINE
8
0
10
190.2950053
20
-126.639947
11
180.2580462
21
-137.7871193
0
LINE
8
0
10
180.2580462
20
-137.7871193
11
191.4052185
21
-147.8240784
0
LINE
8
0
10
191.4052185
20
-147.8240784
11
201.4421776
21
-136.6769061
0
LINE
8
0
10
201.4421776
20
-136.6769061
11
190.2950053
21
-126.639947
0
ENDSEC
0
EOF